<?xml version="1.0" encoding="UTF-8"?>
<svg xmlns="http://www.w3.org/2000/svg" id="Livello_1" data-name="Livello 1" viewBox="0 0 729.99 731.94">
  <defs>
    <style>
      .cls-1 {
        letter-spacing: -.03em;
      }

      .cls-2 {
        letter-spacing: 0em;
      }

      .cls-3 {
        font-family: CocomatPro-Medium, 'Cocomat Pro';
        font-size: 13.68px;
        font-weight: 500;
      }

      .cls-3, .cls-4 {
        fill: #28326d;
      }

      .cls-5 {
        letter-spacing: -.03em;
      }

      .cls-6 {
        letter-spacing: -.09em;
      }

      .cls-7 {
        letter-spacing: -.05em;
      }

      .cls-8 {
        letter-spacing: -.02em;
      }

      .cls-9 {
        letter-spacing: -.04em;
      }

      .cls-10 {
        letter-spacing: -.11em;
      }

      .cls-11 {
        letter-spacing: -.1em;
      }

      .cls-12 {
        letter-spacing: -.04em;
      }

      .cls-13 {
        letter-spacing: 0em;
      }

      .cls-14 {
        letter-spacing: -.03em;
      }

      .cls-15 {
        letter-spacing: 0em;
      }

      .cls-16 {
        letter-spacing: -.08em;
      }
    </style>
  </defs>
  <g>
    <path class="cls-4" d="M187.51,118.64c2.73.07,5.33-.02,7.77-1.63-1.08-1.41-2.78-1.66-4.25-2.94l19.81-9.51c1.51-.72,2.98-.51,4.45.28,5.64,3.03,11.87,5.03,16.97,8.49.42.11,1.79.04,1.75.85-.11.99-1.65.94-2.32,1.31-.67.38-2.46,1.82-1.57,2.51,1.56,1.04,3.6.28,5.14.64,1,.24,2.16,0,3.19.04,3.27.11,6.57-.13,9.79.44,2.04.36,4.18-.1,6.23.04.15-.17.32-.33.5-.47-.03-.89-.22-1.79-.58-2.61-.21-.48-.58-.95-.52-1.51-.52,0-.36-.77-.46-1.11-1.73-2.38-1.78-5.78-4.01-7.79l-1.2.04c-.2.32-.68.34-.93.54-.88,1.27-3.36,2.31-4.31,1.55-.24-.19-.97-.19-1.02-.61-1.27.26-2.06-1.09-3.01-1.41-4.18-1.42-8.01-3.85-12.11-5.49l-1.18-.47c-.58-.23-.92-1.1-.43-1.71.84-1.06,2.21-1.19,3.19-1.72,1.87-1,3.75-2.02,5.77-2.7,0-.52.76-.38,1.11-.5.45-.55,1.29-.95,1.98-1.01,0-.43.77-.55,1.11-.53,2.02.12,3.35,1.94,5.81,2.35,1.42-4.06,3.44-8.09,2.92-11.59-1.15.32-2.35.1-3.52.17l-16.08.91c-.62.03-.95.4-1.01.68-.32,1.46,2.57,1.41,3.06,2.69l-6.73,3.28c-.66.32-.59,1.12-.31,1.6.51.85,9.06-3.57,10.52-4.29.13-.64-.32-1.39-.32-2.21,4.21-.39,8.19-.73,12.45-.42-.7,2.31-1.11,4.33-2.04,6.5l-4.67-2.01c-4.78,2.12-9.38,4.29-13.9,6.74-1.16.63-1.56,2.01-1.51,3.1.04,1.03.83,2.08,2.03,2.64l18.93,8.76,4.88-2.53,3.51,8.92-17.75-.44c1.31-1.23,3.09-1.23,3.17-2.96l-21.24-10.29c-2.33-1.13-4.71-1.43-7.07-.3l-21.97,10.54c.25,1.87,2.02,1.84,3.21,3.08l-18,.4,3.77-8.94,4.81,2.55,18.61-8.65c1.48-.69,2.33-1.76,2.27-3.25-.06-1.33-.87-2.54-2.31-3.23l-12.98-6.18-4.59,2c-.99-2.23-1.69-4.3-2.16-6.7,4.18.15,7.95.18,12.35.68.26.69-.33,1.28-.29,2.23l9.47,4.37c.82.38,1.23,0,1.29-.45.31-2.2-2.99-1.83-5.57-3.92-.33-.27-1.08.07-1.41-.37-.29-.38-.13-.66.32-.89.23-.11.7-.01.99-.19.66-.41,2.03-1.62,1.32-2.36l-20.87-1.1c.68,4.15,2.01,7.81,3.5,11.6l5.63-2.74,12.73,6.19c.47.23.7.78.69,1.06,0,.27-.18.97-.66,1.19l-18.33,8.57c-2.08-.9-3.44-2.45-5.68-3.08l-5.14,11.52c-15.82-4.3-21.76-35.25-22.04-49.06,4.52-1.01,7.1-4.78,6.51-8.95-.57-3.99-3.99-7.04-8.08-6.79-4.1.25-7.36,3.58-7.43,7.65-.07,3.99,2.63,7.42,6.98,8.1.63,14.42,4.25,32.63,13.14,43.86,8.39,10.59,16.23,6.64,27.92,6.92ZM141.99,62.34c-1.22-2.55-.36-6.2,3.03-7.68,3.14-1.37,6.44.24,7.57,3.11,1.15,2.93.01,6.41-3.42,7.75-2.42.95-5.75-.2-7.18-3.18Z"></path>
    <path class="cls-4" d="M199.15,77.15c1.29.75,2.83.61,3.82-.58,1.18-1.4.56-3.22,1.61-4.7l.15,25.03c.01,1.95.61,3.46,2.4,3.9,1.46.36,3.62-.13,3.89-2.06l1.67-11.79c1.68,4.61-.71,14.07,4.66,13.98,1.79-.03,3.28-1.41,3.3-3.53.1-8.35-.52-16.39.19-24.5.78,2.23.94,4.34,3.31,4.62,1.36.16,3.71-.83,3.42-2.96-.75-5.45-2.04-10.79-3.28-16.19-1.23-5.36-6.58-5.58-11.14-6.25,3.37-.97,5.42-3.23,5.57-6.64.18-3.77-2.35-6.7-6.02-6.78-3.34-.08-6.07,2.65-6.17,6.33-.09,3.36,1.83,5.78,5.13,7.05l-5.75,1.04c-2.67.48-4.5,2.79-5.08,5.53l-3.15,14.94c-.34,1.59.39,2.91,1.45,3.53ZM208.44,45.04c.12-2.37,1.73-4.22,3.77-4.44,2.39-.26,4.36,1.24,4.59,4.11.24,2.93-1.51,5.16-4.08,5.26-2.39.09-4.42-2.27-4.28-4.93ZM199.58,74.11l2.97-14.54c.57-2.77,2.74-4.85,5.71-4.95,6.06-.19,13.13-1.24,14.37,4.69l3.12,14.9c.15.7-.37,1.23-.73,1.36-.7.26-1.43-.18-1.64-1.06l-2.87-12.21c-.13-.57-.71-.78-1.02-.75-.38.04-.8.43-.8,1.11l-.02,35.23c0,.84-.92,1.18-1.34,1.16-.45-.02-1.28-.37-1.37-1.19l-2.39-20.45c-.11-.92-.88-1.1-1.31-1.03-.51.08-.64.62-.72,1.33l-2.26,20.18c-.09.8-.84,1.15-1.28,1.15-.78,0-1.44-.67-1.44-1.67v-34.71c0-.67-.29-1.01-.72-1.07-.3-.04-.84.14-.98.7l-3.11,12.42c-.19.75-.88,1.09-1.46.93-.5-.14-.87-.76-.71-1.53Z"></path>
  </g>
  <g>
    <path class="cls-4" d="M464.49,87.25l.79,1.43c.07.13.51.1,1.12-.26l-.16-22.95-51.26.05.12,45.6,38.22-.09c1.6-7.96-.25-16.21.51-24.17,4.16.22,9.56-1.63,10.67.39ZM440.91,67.19l10.86.11c.22,1.88.14,3.32.06,5.74l-10.92.09c-.34-2.11-.38-3.83,0-5.94ZM440.81,74.86l10.91-.07c.35,1.31.31,2.44.07,4.39h-10.85c-.48-1.42-.35-2.8-.14-4.32ZM451.8,85.23l-10.83-.05c-.46-1.27-.4-2.63-.18-4.24l10.98-.07c.31,1.48.27,2.59.03,4.36ZM428.07,67.27l10.77-.03c.36,1.9.31,3.41.07,5.82l-10.69.13c-.46-1.94-.24-3.78-.14-5.91ZM428.1,74.83h10.7c.42,1.31.4,2.47.07,4.35h-10.78c-.21-1.59-.21-2.91.02-4.35ZM428.08,80.83h10.69c.42,1.29.38,2.33.1,4.23l-10.57.14c-.61-1.41-.41-2.78-.23-4.36ZM416.9,67.21l9.37.06c.19,1.89.12,3.38.06,5.79-3.34.22-6.34.17-9.59.02-.15-2.18-.34-4.02.15-5.87ZM416.81,74.85h9.31c.4,1.32.34,2.48.15,4.24l-9.35.16c-.46-1.39-.5-2.85-.11-4.4ZM426.17,91.21c-3.23.16-6.21.18-9.46,0-.26-1.5-.23-2.71-.01-4.23l9.31-.12c.64,1.34.44,2.74.16,4.35ZM416.76,80.85l9.49.02c.25,1.28.18,2.29.03,4.14-3.13.37-6.05.12-9.38.17-.63-1.39-.41-2.74-.15-4.33ZM416.81,93.01h9.32c.33,1.49.21,2.79.11,4.32l-9.31.04c-.63-1.3-.52-2.83-.12-4.36ZM426.2,103.35c-3.26.31-6.2.1-9.39-.03-.41-1.45-.33-2.73-.14-4.3h9.57c.2,1.45.24,2.61-.04,4.33ZM426.24,109.35h-9.49c-.31-1.46-.31-2.67-.03-4.14l9.31-.17c.65,1.31.41,2.7.21,4.31ZM428.12,99h10.64c.46,1.28.42,2.33.13,4.24l-10.59.13c-.61-1.41-.4-2.77-.18-4.37ZM428.1,92.97h10.7c.36,1.33.35,2.49.06,4.31l-10.76.03c-.22-1.57-.21-2.89,0-4.34ZM438.85,109.33l-10.72.06c-.3-1.51-.3-2.7-.03-4.24l10.68-.02c.46,1.37.44,2.4.07,4.2ZM438.61,91.08c-3.08.48-6.78.1-10.23.24-.75-1.3-.52-2.69-.24-4.37,3.3,0,6.83-.3,10.29.09,1,.22.94,3.3.17,4.04ZM440.82,98.97l10.94.1c.29,1.41.31,2.59.05,4.29l-10.88.04c-.45-1.43-.38-2.95-.11-4.43ZM440.82,93.02l10.9-.06c.34,1.32.36,2.47.06,4.43l-10.85-.04c-.49-1.4-.32-2.79-.11-4.33ZM451.78,109.39l-10.73-.03c-.5-1.53-.57-2.84-.24-4.26l10.89.07c.39,1.37.42,2.37.09,4.21ZM451.75,91.26l-10.93.05c-.27-1.44-.35-2.77.12-4.37l10.49.08c.96.56.58,2.92.31,4.25ZM453.62,67.32l11.05-.05c.19,1.91.12,3.37.05,5.8l-11.07.02c-.2-2.08-.17-3.73-.03-5.77ZM453.73,74.85l10.8-.04c.27,1.36.29,2.47.12,4.38l-10.88.02c-.35-1.4-.31-2.8-.04-4.37ZM453.69,80.93l10.72-.07c.45,1.39.35,2.83.13,4.37l-10.62.04c-.57-1.33-.43-2.75-.24-4.33Z"></path>
    <path class="cls-4" d="M477.59,96.86c.28-3.09.27-5.95-.15-8.97-1.85-.53-3.67-.43-5.51.02l-.37,2.9c-4.71-.9-9.51-1.13-14,.42-2.35.81-3.15,2.26-3.15,4.64l.04,22.82c0,2.62.64,4.14,3.2,5.08,3.94,1.44,8.59,1.24,12.78.71-.34,7.77,20.88,7.36,21.71,1.11,3.39-.31,7.21.47,10.68-.74,1.22-.42,4.02-1.13,4.15-2.82.49-6.19.12-11.87.13-17.81,0-1.38-1.93-2.39-3.08-2.78-4.78-1.62-9.78-1.44-14.61-.02-5.14,1.51-2.16,6.07-3.5,9.32-3.63-.39-6.75-.4-10.29.3l-.06-13.47c.85-.29,1.76-.28,2.02-.69ZM472.59,93.19c4.59,1.74-6.02,6.01-15.18,2.35-4.31-1.72,5.66-5.97,15.18-2.35ZM456.42,97.11c5.67,2.15,11.6,2.06,17.24,0,1.34,4.74-18.79,4.67-17.24,0ZM456.61,100.93c5.64,1.99,11.55,2.07,17.08-.19,1.36,5-19.29,4.62-17.08.19ZM456.55,104.58c5.6,2.12,11.46,2.05,16.95.02,2.1,4.62-19.14,4.71-16.95-.02ZM456.39,112c4.54,1.99,9.25,1.98,14.22,1.06.58-.11.45.92.32,1.22-.97,2.27-16.01,1.84-14.55-2.28ZM470.85,117.94c-1.53,2.66-16.19,1.47-14.26-1.99,4.54,1.7,9.17,1.73,13.92.92.31-.05.47.84.34,1.06ZM457.55,121.82c-.88-.34-1.5-1.18-.95-2.22,4.48,2.54,13.76.97,14.08,1.17,2.65,1.59-5.38,4-13.13,1.05ZM456.58,108.24c5.49,2.28,11.45,2.17,16.9.04.51.96.03,1.47-.71,2.11-2.83,2.13-17.77,2.38-16.19-2.15ZM489.33,126.92c-5.05,2.03-10.44,2.26-15.32.21-.89-.37-1.48-1.21-1.13-2.32,5.39,2.22,11.22,2.07,16.94.1.5-.17.33,1.67-.49,2ZM472.81,120.97c5.66,2.49,11.74,2.15,17.24.12,1.35,4.87-19.36,4.76-17.24-.12ZM472.68,117.38c5.6,2.07,11.67,2.28,17.37-.02,1.9,4.55-18.31,5.02-17.37.02ZM492,123.02c-.25-.22-.28-1.21.3-1.14,4.55.53,8.8.51,13.02-1.43,1.59,3.19-11.22,4.45-13.32,2.57ZM492.28,118.57c4.54.4,8.78.41,12.91-1.37.59,3.29-9.58,3.91-13.03,2.51-.24-.1-.41-1.18.12-1.14ZM491.96,115.08c4.45.62,9.21.32,13.48-1.35,1.3,3.64-15.93,4.69-13.48,1.35ZM487.66,110.33c5.84,2.37,11.66,2.24,18.01.12-1.45,4.46-15.53,4.23-18.01-.12ZM488.21,107.16c5.68,2.01,11.65,2.21,17.44-.33.29,4.52-18.11,4.57-17.44.33ZM504.41,103.41c5.04,1.81-10.4,6.42-16.84,1.12,4.98-3.47,11.55-3.02,16.84-1.12ZM489.93,114.51c.88,1.38-7.79,4.68-16.29,1.23-.49-.2-.78-.7-.84-.96-.67-2.73,14.71-4.05,17.13-.27ZM475.44,95.32c-.41-1.55-.27-2.89-1.8-3.68-.16-.79-.4-1.53.04-2.12.38-.52,1.47-.58,2.2.06-.15,2.07.43,3.81-.43,5.74Z"></path>
    <path class="cls-4" d="M453.34,114.41c-.11-.32-.48-.6-1.08-.6h-37.8c-1.44,0-2.36-.95-2.36-2.71l.08-48.44,26.55.11h30.36s.07,25.23.07,25.23c0,.42.4.79.59.89.19.1,1.01-.36,1.01-.6l.05-33.46c0-1.92-1.29-3.92-3.48-3.92l-52.84-.03c-2.56,0-3.83,1.66-3.95,4.01-.39,7.57.56,15.17-.44,22.61-.21,1.54.09,1.93.11,3.36l.29,30.56c.02,2.51,1.41,4.02,3.96,4.02l37.84.02c.8,0,1.22-.49,1.04-1.05ZM414.49,52.58h52.36c3.27,0,2.28,5.21,2.11,8.45h-56.58c-.14-2.55-1.32-8.45,2.11-8.45Z"></path>
    <path class="cls-4" d="M503.59,62.9c-1.83,1.75-3.38,3.72-5.5,4.88.08.7-.83.84-1.12,1.17-.54,1.01-1.33,2.15-2.54,2.43-.54,1.16-1.82,2.91-3.16,3.34-2.58.84-5.4-1.03-6.35-3.46-.46-1.18.13-2.52-.92-3.26-1.3-.91-2.71-.75-4.38-.09l-.58,3.66c-.15.94-7.24,6.45-6.57,7.59.29.49,1.19.47,1.65.02l5.72-5.67c1.69-1.68,3.96-.51,5.3.93,1.13,1.22,1.69,2,1.65,3.77-.04,1.76,1.97,1.95,3.05,1.98,2.13.07,1.72-2.11,2.63-3.33,3.45-4.65,8.17-8.03,11.98-12.43.65,1.33-.5,2.33.47,3.13.45.37,1.12-.46,1.31-.78-.15-.57.35-1.05.43-1.53.13-.8-.04-1.75.24-2.52l.06-1.23c.04-.28-.18-.61-.12-.89-.69.01-1.39-.04-2.08,0-.3.02-.78-.01-1.04.09-.47.37-1,.35-1.56.43-.55.09-1.16.32-1.71.6-.67.35-.1,1.06.22,1.44.91-.11,1.73-.46,2.9-.27ZM482.71,70.95c-.36.25-1.1.34-1.53-.24-.27-.37-.23-1.18.38-1.54.5-.3,1.01-.13,1.23.1.5.52.5,1.27-.08,1.68ZM489.92,78.35c-.33.22-.75.24-1.31-.26-.36-.32-.43-1.18.22-1.62.61-.41,1.14-.08,1.51.39.28.35.05,1.17-.42,1.49Z"></path>
    <path class="cls-4" d="M507.1,97.25l-.2-25.43c-1.72-.7-3.64-.6-5.74-.16l.07,25.42c2.22.3,3.98.15,5.86.17ZM502.92,95.15l-.12-21.66c0-.75,2.19-.68,2.26-.13l.22,21.25c.01,1.33-2.36,1.21-2.36.55Z"></path>
    <path class="cls-4" d="M485.02,96.85l-.11-17.13c-1.81-.39-3.75-.47-5.58.04l-.25,9.86c-.06,2.55-.36,4.82.31,7.35,1.82.32,3.83.63,5.64-.11ZM480.91,94.9l.11-13.44c0-.4.93-.38,1.18-.36.38.04.99.4.99,1.23l-.03,12.36c0,1.33-1.98,1.1-2.25.21Z"></path>
    <path class="cls-4" d="M499.65,96.86l-.14-17.06c-1.85-.55-3.72-.57-5.63-.03l.02,17.33c2.1.18,4.02.58,5.76-.24ZM495.59,95.21c-.29-4.49,0-8.79-.07-13.45-.01-.92,2.14-.96,2.2-.3.41,4.47.31,8.77.2,13.59-.02.82-2.29.72-2.32.16Z"></path>
    <path class="cls-4" d="M492.25,97.02l-.06-12.84c-2.06-.38-3.88-.5-5.68,0-.66,4.39-.57,8.52.01,12.88,1.86.33,3.58.32,5.73-.03ZM488.22,86.06c0-.77.97-.56,1.3-.6.63-.07,1,.65,1,1.55l-.05,7.72c0,1.1-2.05,1.08-2.13.45-.37-3-.14-5.97-.11-9.13Z"></path>
    <path class="cls-4" d="M461.97,77.62c5.7-.79-6.3-2.72-6.19-.7.07,1.27,4.39.94,6.19.7Z"></path>
    <path class="cls-4" d="M462.05,83.79c2.64-1.94-6.43-2.12-6.33-.66.09,1.26,4.13.67,6.33.66Z"></path>
    <path class="cls-4" d="M450.15,101.19c-2.78-1.36-5.16-1.17-7.68,0,2.38,1.39,5.46,1.36,7.68,0Z"></path>
    <path class="cls-4" d="M442.91,83.14c.01,1.25,4.69.61,6.52.71,2.69-1.92-6.54-2.16-6.52-.71Z"></path>
    <path class="cls-4" d="M449.7,94.68c-.13-.24-6.81-.93-6.79.42.03,1.31,7.81,1.54,6.79-.42Z"></path>
    <path class="cls-4" d="M449.75,76.55c-2.2-.66-5.02-.91-7.29.42-.36,1.51,11.2.76,7.29-.42Z"></path>
    <path class="cls-4" d="M442.45,89.19c2.46,1.26,5.43,1.44,7.67-.07-2.7-1.23-5.22-1.2-7.67.07Z"></path>
    <path class="cls-4" d="M442.46,107.33c2.43,1.21,5.55,1.62,7.77-.15-2.79-1.33-5.29-1.27-7.77.15Z"></path>
    <path class="cls-4" d="M430.26,59.34c1.95-.02,2.83-1.7,2.54-3.07-.3-1.41-1.7-2.05-3.23-1.78-1.48.26-2.06,1.36-1.93,2.64.11,1.12.92,2.22,2.62,2.21ZM429.64,56.25c.28-.31.66-.21,1.06-.14.4.07.47.62.3.95-.27.53-.77.69-1.21.45-.38-.21-.55-.83-.16-1.26Z"></path>
    <path class="cls-4" d="M425.13,58.97c1.18-.76,1.41-2.39.77-3.5-.64-1.13-2.23-1.34-3.5-.8-1.43.62-1.54,2.52-.77,3.65.76,1.12,2.33,1.4,3.5.65ZM423.41,56.14c.33-.16.73-.08.87.1.3.37.19.86-.2,1.17-.24.19-.74.26-1.04-.21-.17-.26-.14-.83.37-1.06Z"></path>
    <path class="cls-4" d="M418.17,59.17c1.52-.56,1.76-2.21,1.29-3.44-.45-1.19-1.99-1.65-3.45-1.04-1.69.71-1.71,2.57-.99,3.56.8,1.11,2.19,1.28,3.15.92ZM416.67,56.19c.32-.25.8-.16,1.12.06.26.18.07.9-.2,1.19-.22.24-.75.27-1.11-.16-.21-.24-.28-.72.19-1.09Z"></path>
  </g>
  <g>
    <path class="cls-4" d="M588.4,444.48c.37-2.34.98-14.84-.33-14.97-.34-.04-.92.27-.93.85l-.1,12.66c-2.1-1.35-2.59-3.53-5.43-4.63l-.2,49.06,47.7.07c.67,0,1.09-.63,1.03-.99-.12-.85-10.37-10.21-12.1-12.64-.05.05-.1.09-.16.11l-29.48-29.5ZM626.86,485.26c-1.49,1.18-3.47.53-5.37.44-.58-1.12-.01-2.23-.81-3.35-1.95.03-.24,3.43-1.99,3.47-1.14.03-.88-1.75-1.56-1.92-1.45-.35-.51,1.97-2.06,1.93-1.01-.03-.56-2-1.57-2.04-.49-.02-.79.13-.91.85-.07.4-.12.87-.29,1.01-.32.27-.96.25-1.24,0-.31-.29-.16-.89-.25-1.5l-.18-1.25c-.05-.32-.79-.52-1.18-.24-.43.31.05,2.62-.7,3.06-.56.33-1.27-.04-1.42-.95-.09-.55-.34-.88-.6-.94-1.27-.26-.67,1.58-1.53,1.89-1.78.66-.85-2.02-2.09-2.06-.92-.03-.78,1.75-1.16,1.99-.3.19-1.01.2-1.34-.06-.18-.15-.16-1.96-.37-2.68-.09-.31-.68-.55-1.1-.28-.59.38-.04,2.63-.8,3-.55.26-1.21.03-1.42-.84-.12-.51-.3-.87-.55-.94-1.44-.4-.7,1.85-2.08,1.87-1.11.02-.62-1.77-1.56-1.89-1.64-.22.07,2.13-2.09,1.92-.64-.06-.54-.78-.65-1.61l-.16-1.17c-.04-.32-.9-.69-1.14-.25-.47.84-.1,1.79-.54,2.93-1.27.05-3.19.76-4.63-.25-1.06-.74-.31-3.05-.36-4.05,1.06-.51,2.53-.1,3.05-.79.89-1.76-3.15-.49-3.14-1.88,0-1.15,1.7-.79,1.88-1.55.34-1.4-1.62-.73-1.85-1.64-.36-1.46,3.65-.68,2.26-2.23-.5-.56-1.95-.21-2.21-.85-.42-1.03,1.37-.71,1.64-1.45.18-.51-.04-.99-.72-1.16-.43-.11-.81-.29-.9-.53-.64-1.61,4.43-.16,3.07-2.03-.54-.75-4.14.05-2.93-1.65.29-.41,1.13-.16,1.44-.3.33-.15.37-.65.24-1.1-.08-.27-.4-.47-1.17-.64-1.13-.27-.8-1.27.32-1.26.73,0,1.09-.29,1.08-.61-.07-1.79-2.86-.8-2.11-2.12.49-.85,2.23-.27,2.92-.76.43-.31.38-.83.02-1.13-.68-.57-2.46.12-2.9-.8-.51-1.08,1.64-.78,1.83-1.53.38-1.5-2.15-.68-1.85-2.04.18-.86,2.32-.35,2.03-1.57-.21-.87-2.03-.43-2.05-1.54-.02-1.34,3.7-.08,2.89-1.74-.43-.87-1.8-.36-2.78-.73-.09-1.89-.32-3.64.15-5.84l43.49,43.4Z"></path>
    <path class="cls-4" d="M641.09,428.24c-1.06-2.67-.21-6.17-2.27-8.87-.45-.59-.25-2.49-1.95-2.35-.46,1.85-2.53,4.25-2.54,6.51l-.16,42.28c0,.6.73.94,1,.83.21-.09.62-.37.62-.85l.08-40.93c0-.97,3.03-.95,3.03,0l.16,42.71c1.42.65,4.59.28,4.21,2.7-.09.59-.71,1.74-1.7,1.76l-22.52.24c-.59,0-.61,1.06-.94,1.52l22.65-.04c2.61,0,4.17-1.55,4.18-4.18l.06-37.3c0-2.75-2.55-3.1-3.91-4.03ZM637.88,422.42c-.46.22-1.03.22-1.31-.32-.16-.31.21-.76.49-1.24.12-.78.52-.62.73.13.44.65.52,1.22.09,1.42ZM640.68,465.89l-.11-35.65c1.13-.11,2.65.59,2.65,1.63l.03,34.5c0,.86-2.57.16-2.57-.49Z"></path>
    <path class="cls-4" d="M618.04,473.87s.05-.05.07-.08h-.13s.04.06.06.08Z"></path>
    <path class="cls-4" d="M632.59,433.27c-.57-.75-11.41.12-15.13-.55-1.51-.27-2.26-.04-3.72.08-7.29.56-14.45.04-21.73.09-.69,0-.92.28-.93.64-.03.53.16.85.86.86l17.84.19c-3.82,2.5-7.05,5.54-7.72,10.14-.2,1.37-.38,2.5-1.64,3.69l4.74.73c.67,5.19,4.49,8.96,9.54,9.7.51.99.13,1.93,1.2,2.68.75-.87.22-1.79.66-2.8,5.31-.35,9.43-4.38,9.84-9.72,1.31-.44,2.46.14,3.83-.87-.67-1.68-3.95.4-4.04-2.15-.07-1.96,4.62.19,4.48-2.02-1.67-.71-3.42-.1-5.21-.58-1.59-3.47-4.58-5.55-8.33-6.13-.83-.13-1.12-2.5-.27-2.52l15.6-.34c.33,0,.3-.93.16-1.11ZM604.66,447.21c-.4.17-1.53.18-1.5-.37.33-6.16,5.36-11.3,11.49-11.78.51-.04.6,2.07,0,2.15-9.21,1.37-8.95,9.55-10,9.99ZM614.99,447.25c-2.96.19-5.23.19-8.14,0,.17-4.29,3.41-8.01,8-8.45.36,2.88.16,5.26.15,8.45ZM614.8,457.28c-4.3-.69-7.47-3.66-8.1-8.24,2.53-.64,4.83-.08,8.06-.29.47,2.95.34,5.47.04,8.52ZM616.43,456.84c-.21-.19,0-1.12.42-1.16,4.19-.38,5.62-3.44,7.4-7.33,2.31,4.41-5.99,10.13-7.83,8.49ZM616.5,448.86c1.81-.11,3.14-.17,5.56.06-.46,2.6-2.3,4.96-5.39,5.4-.53-1.84-.31-3.58-.16-5.47ZM616.88,447.28c-.71,0-.76-2.02-.08-2.1,1.71-.21,6.98-.48,7.77.48,2.03,2.47-5.25,1.64-7.69,1.62ZM616.54,438.92c2.89-.01,5.37,1.58,7.01,4.38-2.27.51-4.54.27-6.99.14-.3-1.56-.34-2.88-.02-4.52Z"></path>
    <path class="cls-4" d="M566.88,434.62l.39,41.1,3.17,9.76c.21.64-.02,1.22.28,1.5.57.52,1.12.48,1.49-.02-.33.45,3.96-10.22,3.96-11.24l.1-45.96c-3.36-2.32-.33-7.57-4.78-7.28-1.75.11-2.64,1.58-2.42,3.5.17,1.51-1.13,2.04-1.47,3.11l-1.02,3.23c-.3.94-2.61.93-2.61,2.46v13.99c0,.69.32,1.05.75.97.37-.07.8-.25.8-.95v-12.93c-.02-.86,1.37-1.87,1.37-1.23ZM571.7,482.84c-1.23-2.08-1.57-3.88-2.35-6.08,1.61-.33,3.01-.22,4.77.02-.81,2.23-1.26,3.95-2.42,6.06ZM568.77,474.74l-.02-19.79c1.84-.47,3.76-.28,5.84-.03l.07,19.75c-1.96.41-3.88.38-5.88.07ZM568.77,452.94l.03-18.58c2.02-.27,3.84-.31,5.8.15l.05,18.35c-1.89.51-3.82.38-5.87.09ZM570.91,424.74c.08-.32.5-.43,1.06-.38,1.28.11.82,3.52.48,3.69-.42.22-.99.26-1.41-.01-.52-.33-.29-2.65-.13-3.29ZM569.06,430.13c1.64-.6,3.62-.37,5.32-.05.4.36.25,1.44.14,2.29-1.91.31-3.67.18-5.57,0-.26-.45-.54-1.99.11-2.23Z"></path>
    <path class="cls-4" d="M624.65,428.69c1.3,0,7.77-.89,7.16-3.37-.35-1.44-6.18-2.5-6.64-2.51-9.43-.08-18.6-.32-28.02.09-2.76.12-5.23,1.44-7.86,2.73,2.53,1.32,5.08,2.86,7.88,2.88l27.48.18ZM599.24,424.46l22.82-.08c2.51.32,4.77.06,7.75,1.35-2.93,1.39-6.31,1.38-9.84,1.37l-20.75-.08c-1.02,0-1.01-2.55,0-2.55ZM596.62,426.57c-1.09.06-1.98-.45-3.15-.8.96-.45,1.92-1.01,3.14-.98.54.02.56,1.76.01,1.78Z"></path>
    <path class="cls-4" d="M624.73,464.41c2.61-1.22,4.9-.1,7.16-.6,2.02-2.34-5.2-.69-6.71-1.44-.57-.96-.05-2.05-1.08-2.74-.63.64-.07,2.56-.98,2.71-3.03.48-10.67-.12-11.23.43-2.31,2.28,9.94.54,11.47,1.44l-3.51,1.25c.89,1.2,2.72.28,3.6,1.16.32.34-.26,1.87.58,1.96,1.48.15,7.75.53,8.07-.41.67-1.93-6.97,0-7.6-1.46,1.36-1.27,8.79.53,7.39-1.67-2.25-.53-4.55.62-7.14-.62Z"></path>
    <path class="cls-4" d="M590.22,478.57c6.86-.3,13.09.69,19.77-.42l-19.37-19.43c-.99,6.86-.24,13.03-.4,19.86ZM591.98,462.35l14.73,14.5-14.85.08.13-14.58Z"></path>
  </g>
  <g>
    <path class="cls-4" d="M121.97,491.01l-.16-38.86c0-2.05-3.29-2.61-4.74-2.34-2.64.5-4.34-.49-6.43-.89-5.64-1.07-1.34-4.23-8.25-3.39-1.36.17-1.71,2.2-3.17,2.89-1.22.58-2.93.67-4.23,1.16-2.04.77-4.3-.02-6.21.23-1.53.19-2.84,1.37-2.98,3.32l.22,38.38c.01,1.78,1.65,2.98,3.37,2.99l29.1.06c2.03,0,3.48-1.46,3.47-3.56ZM97.67,450.58c1.19-.17,2.97.29,3.47-.75.69-1.45,1.11-2.65,2.58-2.68,1.53-.04,2.46.86,2.93,2.4.46,1.51,2.36.57,3.45,1.08,1.07.51.64,2.68.32,3.81l-12.63-.14c-.79-.88-.62-2.82-.1-3.72ZM111.67,456.22c1.06-2.1,3.56-2.1,5.45-1.08v34.54s-26.26-.01-26.26-.01l-.07-34.56c2.03-1.02,4.5-.82,5.8,1.1h15.08ZM116.84,492.68l-24.64-.03c-1.13,0-4.27.68-4.28-.75l-.2-39.85c2.8-.74,5.44-.83,8.37-.09-2.28,1.47-4.35.11-6.49,1.08-.61.28-.68,1.79-.67,2.67l.05,33.75c0,.57.18,1.17.32,1.5.14.36,1,.51,1.67.5l27.9-.09.16-32.53c0-1.93-.03-3.81-.35-5.77-2.28-.89-4.46.26-6.87-1.08,2.85-.89,5.27-.41,8.29-.23v37.67c.01,1.04.3,1.95-.23,2.69-.61.86-1.71.54-3.02.54Z"></path>
    <path class="cls-4" d="M38.43,418.02l-.19,36.65.15,12.36c.05,4.26,2.98,7.97,7.41,7.97h37.77c.59,0,.89-.59.92-.85.03-.27-.2-.8-.82-.81l-13.5-.22c.22-1.81,1.89-2.8,3.69-2.8l9.3.03c.65,0,1.26-.35,1.25-.83,0-.33-.22-1-.87-1l-9.56-.05c-3.25-.02-4.87,2.17-6.42,4.56-6.91.46-14.59.17-21.5.19-3.3.01-5.44-2.57-5.72-5.31-.3-2.97,1.68-5.55,4.74-6.29l6.2-.21.07-39.66,38.24-.13c.51,0,.88-.74.8-1-.08-.26-.43-.82-1.06-.82l-37.85-.03-.29-8.45c-2.27-.32-4.5-.4-6.94-.02-3,.48-5.8,3.4-5.82,6.69ZM49.4,413.39l.08,46.29c-3.5-.24-6.22-.02-9.21,2.4l.1-44.09c0-4.37,5.83-6.08,9.03-4.6Z"></path>
    <path class="cls-4" d="M89.01,423.46c-1.41,1.01-1.39,5.41.06,6.41,1.32.91,2.86.36,3.31,2.04.29,1.1.07,1.92-.82,3.1-1.16,1.53,3.05,5.72,4.82,4.76,1.04-.56,1.94-1.05,2.95-.66.96.37,1.81,1.02,1.97,2.27.44,3.51,6.43,2,6.83.91.34-.91.5-2.5,1.55-2.87,4.4-1.53,2.55,1.46,5.25.49.17-.06,4.31-3.03,3.25-4.72-.88-1.4-1.08-2.42-.58-3.83.47-1.31,2.12-.68,3.18-1.6,1.24-1.06,1.23-5.16-.1-6.11-1.34-.96-2.74-.57-3.27-2.16-.45-1.37.52-2.32.72-3.86.21-1.55-2.58-4.5-4.11-4.23-1.78.32-2.7,1.5-4.35.6-1.13-.62-.89-2.22-1.9-3.23-1.16-1.16-4.9-1.09-6.01.04-.86.87-.28,2.75-1.6,3.01-.67.14-1.75,1.1-2.62.5-.77-.53-1.27-1.16-2.14-1.05-.92.12-4.78,3.16-3.78,4.84.85,1.44,1.06,2.4.63,3.68-.51,1.52-2.06.79-3.25,1.64ZM94.48,419.58c0-.93-1.6-1.51-1.11-2.31.42-.69,1.11-1.35,1.75-1.78.79-.53,1.49.9,2.41,1.11,10.4-2.5,1.47-4.46,8.24-4.67,1.18-.04.68,1.74,1.21,2.45,7.59,5.35,6.24-2.22,9.22,2.87.47.8-1.12,1.48-1.1,2.33.04,1.57.94,3.6,2,4.79.55.62,1.86.27,2.19.71.59.78.5,1.87.24,2.79-.24.86-1.78.36-2.49,1.04-1.1,1.05-1.84,3.26-1.91,4.78-.04.87,1.69,1.56,1.15,2.43-.41.66-1.16,1.34-1.81,1.78-.8.54-1.59-1.21-2.47-1.12-8.33,1.77-3.52,4.86-6.78,4.9-1.9.02-2.32-.5-2.45-2.6-.07-1.05-2.02-.9-2.68-1.46-1.81-1.5-2.79-.64-4.22.2-.81.48-2.84-1.59-2.45-2.44.32-.69,1.18-1.3,1.33-1.93.15-.63-.58-1.29-.74-2.02-1.26-5.6-4.07-.37-4.15-5.5-.02-1.41,1.54-.82,2.62-1.5,1.25-.8,2.01-3.4,2.02-4.85Z"></path>
    <path class="cls-4" d="M86.46,428.45c-.01-.24-.26-.81-.78-.81l-26.16-.08c-.89,0-1.57-.42-2.07.11-.71.75.13,1.47.13,2.3l-.06,33.5c0,.91-.7,1.65.26,2.28.36.23.9-.06,1.64-.06l23.76-.13c.74,0,1.2-.28,1.19-.76-.01-.63-.49-.81-1.19-.83l-5.64-.14c-.58-1.44.76-5.96-1.35-5.45-.99.24-.24,2.57-.65,4.68-.19.98-2.35,1.21-2.61.37-.97-3.14.68-7.69-1.42-7.44-1.22.14.05,6.02-.78,7.9l-11.33-.06-.09-12.01,4.15-.13c.69-.02,1.15-.28,1.17-.89.05-1.36-3.86-.36-5.23-.93-.16-1.3-.81-3.73.42-4.44,1.08-.63,2.94.55,3.42-1.2-1.3-.71-2.54-.26-3.97-.6v-14.36s26.43.01,26.43.01c.53,0,.77-.57.76-.82Z"></path>
    <path class="cls-4" d="M79.86,452.42c-3.51.85-.69,4.03-4.08,2.69-.51-.2-.19-1.34-.65-1.76-4.14-3.64-6.21,1.08-6.91-2.09-.11-.51.73-.9.75-1.53.13-4.55-3.56-3.75-3.34-5.73.11-.96.96-.59,1.72-1.16,1.12-.85,1.95-3.05,1.63-4.4-.16-.69-1.03-1-.65-1.56.32-.47.65-.72,1.09-.83.54-.13.97.78,1.54.77,6.55-.1,3.87-7.15,7.08-1.88.66,1.09,3.02,2.14,4.27,1.78,1.14-.33,1.62-.95,2.49,0,.67.73-.22,1.02-.44,2.07-.28,1.37.71,3.65,1.92,4.25.94.46,1.5.56,1.42,1.52-.13,1.57-3.48.06-3.2,5.33.37.69,2.2-.68,2.23-1.38.04-1.02,1.35-1.13,2.14-1.73,1-.76.86-3.99-.08-4.82-.82-.72-2.07-.66-2.51-1.72-.37-.9.66-1.65.67-2.78.01-1.38-2.15-3.47-3.46-3.22-1.28.25-1.93.96-2.86.52-.96-.46-1.05-1.77-1.7-2.5-.82-.93-3.93-1.1-4.69-.15-.76.94-.54,2.32-2.06,2.73-.75.21-1.43-.53-2.64-.58-1.42-.06-3.49,2.09-3.16,3.42.27,1.1,1.05,1.74.69,2.57-.39.91-1.5.79-2.4,1.45-1.08.8-1.09,4.08-.19,5.1.69.78,2.08.46,2.53,1.61.36.92-.64,1.66-.71,2.78-.07,1.19,2.05,3.31,3.22,3.3,1.14-.01,1.9-1.14,2.79-.78,1.14.46,1.17,1.31,1.84,2.5.72,1.29,4.21,1.24,4.93-.05.65-1.17.72-2.05,1.98-2.38.72-.19,1.28.22,2.3.75.6.31.91-.92.9-1.34-.73-.47-1.35-1.25-2.01-1.42-.93-.25-1.59.48-2.4.68Z"></path>
    <path class="cls-4" d="M112.22,444.85c-1.1-.06-.39-2.96-.96-3.36-.25-.18-1.19-.44-1.27,0-.3,1.71-.3,3.56.1,5.28,3.32.24,6.15-.06,9.27.5-.13-.93-.72-2.09-1.75-2.15l-5.4-.27Z"></path>
    <path class="cls-4" d="M94.56,441.63c-.72,1.95-1.1,4.61.38,6.56,1.49-.12.76-9.66-.38-6.56Z"></path>
    <path class="cls-4" d="M75.39,437.3c-4.23.76-6.56,4.81-5.7,8.68.8,3.58,4.4,6.31,8.26,5.4,3.7-.87,6.44-4.17,5.74-8.36-.56-3.37-4.09-6.48-8.31-5.72ZM78.89,449.17c-2.69,1.19-5.79.17-7.12-2.58-1.15-2.37-.36-5.79,2.64-7.15,3-1.36,6.14.19,7.24,2.98.97,2.46-.2,5.6-2.76,6.74Z"></path>
    <path class="cls-4" d="M93.43,473.72c-.22,1.93-.22,3.6,0,5.55,1.9.26,3.66.33,5.7-.03.31-2.16.4-3.78-.03-5.62-1.99-.23-3.76-.25-5.67.1ZM97.44,477.18c-.08.54-.95.43-1.55.41-.82-.03-1.13-1.05-.61-1.96.36-.62,1.47-.48,1.96-.17.38.24.31,1.01.2,1.72Z"></path>
    <path class="cls-4" d="M93.41,480.96c-.2,1.86-.43,3.6.13,5.33,2.05.24,3.76.39,5.7-.13.08-2.17.27-3.64-.13-5.31-2.02-.46-3.82-.47-5.71.11ZM97.37,484.41c-.34.48-1.14.37-1.56.34-.75-.07-1.2-1.22-.52-2.1.42-.55,1.46-.38,1.88-.12.45.27.5,1.45.19,1.88Z"></path>
    <path class="cls-4" d="M102.93,477.41l11.12-.06c.79,0,.91-.78.77-1.04-.15-.27-.52-.63-1.05-.62h-11.22c-.64,0-.85.69-.84,1,.02.42.61.73,1.23.73Z"></path>
    <path class="cls-4" d="M102.94,463.49l11.54-.06c.64,0,.4-1.32.09-1.42-.18-.06-.33-.32-.81-.32h-10.79c-.71,0-1.19.55-1.06,1.03.08.31.43.77,1.04.77Z"></path>
    <path class="cls-4" d="M113.77,482.72h-10.82c-.67,0-1.09.39-1.08.78.02.45.41.88,1.06.87l11.2-.06c.9,0,.81-1.08.57-1.25-.16-.11-.45-.35-.92-.35Z"></path>
    <path class="cls-4" d="M102.91,470.39h10.87c.64-.02,1.05-.43,1.06-.74.02-.5-.42-.96-1.08-.96l-10.85-.02c-.71,0-1.1.46-1.1.81,0,.54.41.91,1.11.91Z"></path>
    <path class="cls-4" d="M98.95,466.69c-1.93,1.24-1.85,2.26-3.06,2.63-.62.19-1.74-1.1-2.44-.41-.77.76,1.6,3.34,2.6,2.72,1.78-1.1,3.08-2.57,3.91-4.02.26-.46-.73-1.1-1.01-.92Z"></path>
    <path class="cls-4" d="M95.38,462.32c-.44-.14-1.06-.69-1.47-.65-.24.02-.73.25-.62.84.16.86,1.9,2.73,2.71,2.29,1.74-1.1,2.75-2.52,3.89-3.87.42-.5-.57-1.22-.93-1.08-1.63.65-2.16,2.94-3.58,2.47Z"></path>
    <path class="cls-4" d="M103,450.3c.6.37,1.43.37,1.73.07.45-.45.56-1.26.21-1.6-.46-.44-1.29-.59-1.87-.15-.74.56-.53,1.4-.07,1.68Z"></path>
    <path class="cls-4" d="M106.5,435.68c4.8-.9,8.28-5.4,7.43-10.45-.8-4.73-5.15-8.53-10.52-7.6-5.5.95-8.72,6.06-7.55,11.13,1.06,4.6,5.64,7.85,10.65,6.92ZM102.94,419.59c4.16-1.25,8.01,1.44,9.04,5.1,1.11,3.95-1.21,7.93-4.97,9.04-3.87,1.14-7.84-.96-9.08-4.53-1.36-3.91.66-8.3,5.01-9.6Z"></path>
  </g>
  <g>
    <path class="cls-4" d="M343.69,488.96c11.48-7.4,8.85-21.76,6.59-21.66-.46.02-.85.68-.66,1.33,2.05,6.96-.49,14.03-6.16,18.14-5.49,3.98-12.83,4.22-18.48.48-5.68-3.76-8.58-10.57-7.12-17.46,1.11-5.26,4.8-9.36,8.91-11.38,10-4.9,17.06,2.92,16.82.1-.03-.36-.02-.77-.51-1.06-6.08-3.58-13.38-3.41-19.7.69-1.97-8.96-9.5-5.95-9.96-9.64,2.81-3.82,4.31-8.49,2.03-12.95-1.54-3.02-4.75-4.18-8.11-3.58-2.83.51-5.08,2.94-5.73,6.19-1.74,8.63,7.42,10.9.32,12.62-3.61.87-7.12,3.62-7.14,7.53l-.06,12.86c0,.71.57,1.18,1.04,1.03.26-.08.75-.38.76-.97l.04-12.44c.01-4.26,4.34-5.99,7.63-6.73,1.6,2.93,2.69,5.74,4.84,8.35,2.35-2.56,3.3-5.41,4.85-8.38,4.91.43,9.02,5.76,7.39,7.49-7.41,7.89-7.88,19.67.21,27.34,6.01,5.7,15.38,6.47,22.19,2.07ZM309.1,457.08c-1.06-1.17-4.41-7.55-2.72-7.53,2.03.03,3.76-.12,5.89.07-.33,3.1-1.69,5.06-3.17,7.46ZM305.25,445.85c-1.77-2.29-2.27-5.42-1.44-8.25.75-2.57,3.08-4.03,5.47-3.95,2.44.08,4.47,1.71,5.16,4.32.77,2.88.03,5.92-1.98,8.39-2.36,2.08-5.38,1.85-7.2-.51Z"></path>
    <path class="cls-4" d="M352.06,435.8c-1.74,3.78-1.06,8.39,1.53,11.59,2.84,3.52-3.3,2.53-6.56,5.76-.43.43-.79,1-.36,1.43,1.11,1.11,4.47-2.85,6.97-2.02,1.46.14,3.93,9.61,5.84,6.84,1.62-2.35,2.7-4.8,4.11-7.39,4.25,1.22,7.67,2.77,7.69,7.33l.05,12.44c0,.47.98.45,1.21.29.89-.61.56-12.07.42-14.06-.54-7.76-11.52-7.09-9.87-9.52,2.61-3.86,4.28-8.31,2.1-12.77-1.28-2.63-3.85-3.95-6.59-3.88-2.61.06-5.28,1.23-6.53,3.96ZM358.65,457.06c-1.45-2.42-2.87-4.35-3.2-7.35,2.04-.39,3.88-.09,6.36-.1-.07,3.03-1.8,5.18-3.16,7.45ZM357.15,433.86c2.64-.64,5.21.31,6.37,2.76,1.47,3.12.92,7.07-1.59,9.72-2.11,2.23-5.23,1.73-6.93-.32-1.66-2-2.07-4.39-1.88-7.01.19-2.59,2.03-4.67,4.03-5.16Z"></path>
    <path class="cls-4" d="M347.33,429.87c1.21-.94,1.18-4.58-.08-5.43-1.16-.78-2.29-.7-2.79-2.09-.32-.9.63-1.42.86-2.74.27-1.56-2.27-4.13-3.84-3.73-1.46.37-2.14,1.16-3.21.57-1.07-.59-.9-1.63-1.61-2.66-.94-1.38-4.52-1.43-5.44,0-.76,1.17-.56,2.35-2.02,2.79-.84.25-1.45-.43-2.77-.7-1.69-.36-4.39,2.25-3.9,3.9.4,1.33,1.33,2.07.57,3.38-.4.68-1.58.5-2.47,1.21-1.25,1-1.3,4.51-.03,5.51,1,.79,2.32.58,2.61,1.7.27,1.04-.45,1.61-.77,2.78-.48,1.73,2.19,4.46,4,4,1.45-.37,2.07-1.19,3.18-.54,1.05.61.92,1.59,1.57,2.78.72,1.32,4.92,1.29,5.49-.1.73-1.77.65-2.4,2.04-2.85.91-.29,1.46.38,2.74.73,1.7.45,4.39-2.03,3.83-3.8-.46-1.45-1.24-2.06-.63-3.11.6-1.05,1.74-.83,2.68-1.56ZM344.32,428.96c-1.18.48-2,2.89-1.89,4.12.07.84,1.14,1.29.82,1.98-.27.59-.76,1.07-1.32,1.28-.68.25-1.25-.8-2.01-.83-4.58-.15-4.86,3.94-4.83,3.93-.6.27-1.26.07-1.89.08-1,.01-.47-1.23-.99-2.1-.69-1.15-3.39-2.21-4.68-1.78-1.15.38-1.5,1.07-2.26.39-1.02-.91-.69-1.49-.05-2.74.53-1.05-.46-3.61-1.5-4.25-1.15-.71-2.19-.38-2.19-1.69,0-1.53.6-1.45,2.08-2.04,1.16-.46,2.1-3.26,1.66-4.4-.42-1.1-1.01-1.65-.32-2.47,1.63-1.95,3.02,2.31,7.11-1.42.57-.52,0-1.94.71-2.15.72-.21,1.53-.17,2.28.02.67.18.17,1.55.74,2.11,3.34,3.27,5.69.19,6.83,1.17,1.01.87.53,1.54,0,2.7-.53,1.14.54,3.94,1.7,4.44,1.25.53,1.92.42,2.02,1.54.13,1.56-.57,1.53-2.02,2.12Z"></path>
    <path class="cls-4" d="M351.61,457.93c-.81-.8-2.63-1.91-3.77-.77l-16.37,16.44c-1.77-1.04-2.58-2.59-3.99-3.6-1.42-1.02-3.03-.63-4.07.37-.95.92-2.04,2.76-.89,4.06,2.33,2.65,4.78,5.18,7.56,7.62,1.32,1.16,3.09.2,4.02-.78l18.62-19.66c1.12-1.19-.41-2.98-1.11-3.66ZM350.38,461.78l-18.87,19.22-7.2-7.21c-.65-.65-.13-1.49.19-1.83.38-.4,1.14-1.07,1.83-.44l5.2,4.75,16.23-16.59c.86-.88,1.65-1.5,2.66-.51.6.59.84,1.72-.04,2.61Z"></path>
    <path class="cls-4" d="M369.21,477.8c-.89-.39-1.95-1.36-1.96-2.62l-.13-12.74c0-.79-.49-1.41-1.11-1.22-.37.11-.74.6-.74,1.21l.07,12.43c.01,2.15,1.46,4.04,3.07,4.62,1.86.68,3.96.3,5.42-1.06,1.16-1.09,6.75-7.07,5.45-8.13-1.82-1.48-2.34,2.48-6.96,6.66-.93.84-2.11,1.29-3.12.85Z"></path>
    <path class="cls-4" d="M300.04,479.09c1.41-.84,2.44-2.45,2.43-4.43l-.03-12.57c0-.54-.68-.79-.97-.78-.37.01-.79.44-.8,1.09l-.13,12.8c-.01,1.4-1.29,2.34-2.39,2.6-2.33.54-4.04-1.85-4.67-1.08-.35.43-.6.98-.39,1.45.18.41,3.91,2.74,6.95.92Z"></path>
    <path class="cls-4" d="M332.91,420.12c-4.29.65-6.51,4.65-5.93,8.2.64,3.87,4.25,6.13,7.79,5.67,4.15-.55,6.66-3.97,6.05-8.19-.47-3.31-3.79-6.3-7.91-5.68ZM335.4,432.06c-2.57.8-5.33-.51-6.33-3.03-1.06-2.66.1-5.93,3.31-6.89,3.01-.91,5.8.84,6.53,3.37.82,2.82-.69,5.67-3.52,6.55Z"></path>
  </g>
  <g>
    <path class="cls-4" d="M520.44,309.75c-1.65-1-3.08.13-4.62.19-6.52.22-12.85.14-19.13-.03-.47-.01-1.1.28-1.66-.04-.34-.19-.2-1.03-.16-1.43.29-2.74-.86-5.92-.12-8.73.5-1.88,1.94-3.66-.26-5.35-.39-.3-.73-1.1-.87-1.49-.73-.3-1.26-.9-1.58-1.6l-2.04-.36c-.21.33-.67.41-1.03.68-.58.44-.61-.31-.53-.82-1.87.73-5.63-2.84-11.94-1.44-8.12,1.8-8.18,8.61-13.36,8.19-.16-2.69-.19-5,0-7.73,3.28-.31,6.34-.85,9.64-.86.49,0,1.09.81,1.37.61.4-.29.52-1.11.3-1.44-.19-.31-.38-.84-1.11-.78l-10.15.84c-.28-2.98-.2-5.61-.13-8.97l11.13,3.76c.3.1.51-1.14.27-1.25-.2-.09-.28-.32-.76-.49l-10.56-3.71-.05-11.36,17.4,7.01.16,13.4c0,.61.38.89.78.9.34,0,.64-.2.63-.86l-.05-14.4-4.99-2.13c-.7-.3-1.41-.77-2.12-1.02-3.35-1.19-6.85-2.29-9.85-4.19-1.19-.75-2.5,2.03-1.98-7.29-2.8-.9-5.3-2.58-7.94-3.76-2.18-.98-4.62-1.55-6.79-2.66-1.43-.73-14.19-5.8-10.34-3.88-2.1,2.24-5.14,3.34-7.63,5.06-3.15,2.17-6.42,4.23-9.88,6.34l-.24,6.05-14.63,8.15.1,22.41c.12,1.01,2.16.66,2.9,1.7-3.96,1.46-8.04,2.2-12,4.54,3.93,2.7,7.67,3.89,11.61,5.55l30.74,12.9c3.71-1.34,6.75-3.01,10.29-4.05,1.35-.4,2.29-1.1,3.57-1.61l10.36-4.15c.5-.2.66-.48.56-.91-.33-1.45-4.9,1.34-7.45,1.88-.67.14-1.18.79-2.11.9.31-1.01,1.33-1.24,1.93-1.64,1.78-2.69,5.5-3.87,8.83-3.57.02,6.47,4.52,12.29,11.02,12.54,5.78.23,11.37.22,17.12-.05,1.74-.08,3.29-.91,5.23-.89l22.2.25c.27-3.09.17-5.98-.06-8.88ZM459.35,290.34c3.46-2.88,2.06,7.81,1.83,7.96-3.09,2.01-1.28-5.43-1.83-7.96ZM460.12,288.63c-1.33,0-.03-3.77-1.34-4.01l-18.93-3.5c-.25-3.3-.3-6.49.06-9.9l21.56,7.45c-.36,3.53,1.22,9.96-1.35,9.96ZM454.72,291.26c.08-.97,2.84-1.32,3.03-.51.64,2.63-.03,5.19.36,8.15-1.06,1.1-2.09,1.22-3.4,1.14-.06-2.95-.25-5.69,0-8.78ZM455.1,285.58c.7-.28,2.23-.03,2.59.4.4.48.29,1.73.07,2.33-.19.53-1.6.8-2.62.56-.9-.21-.89-2.96-.05-3.3ZM452.85,289.12l-12.87,1.41c-.52-2.62-.3-4.87-.15-7.75l12.82,2.32c.97.17.89,3.23.2,4.02ZM453.16,300.95l-13.31,4.31-.11-13.04,13.38-1.36.04,10.09ZM461.46,258.63l-.03,18.27-21.57-7.34-.22-20.4,21.83,9.47ZM437.82,292.56c.6,3.85.27,8.42.14,12.38-2.64-.5-4.22-1.3-6.4-2.04-.13-3.47-.17-6.8.04-10.32.17-2.84-.51-5.54-.02-8.51l6.33-1.3c.89,10.42-.53,7.2-1.68,8.5-.86.97,1.54.87,1.6,1.29ZM428.07,292.45c.59-.14,1.44.05,1.88.87-.21,2.7.32,5.09-.24,8.36-.16.96-2.4-.03-3.01-.69.38-4.21-1.24-7.9,1.37-8.54ZM424.9,291.1c-.16,1.14-.73,1.22-.07,2.56.89,1.81.02,4.2.25,6.75-.77.07-3.13-.34-3.14-1.36l-.18-20.26c0-1.1,1.26-1.32,1.75-1.81-.4-.41-1.64-.1-1.64-.72l-.06-10.51c2.77-1.64,5.29-3.03,8.35-4.45l-.23,11.73-4.68,2.39c-.37.19-.58.51-.86.74,1.12-.93.78,12.88.5,14.92ZM429.97,283.07l-.17,7.73c-.02.86-2.82,1.08-2.92.33-.61-4.81.05-9.47-.3-14.64l11.43-5.15.07,9.61-8.11,2.12ZM422.39,259.56l15.59-9.95.17,19.75c-2.11,1.21-4.07,2.17-6.35,2.85l-.34-13.2-9.28,4.6c-.37-.73-.96-3.29.22-4.04ZM407.01,294.23v-20.48s13.15-7.03,13.15-7.03l.03,10.9-9.15,4.34.03,13.55c-1.28.55-2.72-.47-4.07-1.27ZM420.22,298.85l-7.62-2.49-.11-13.45,7.66-3.55.07,19.48ZM464.94,304.75c-6.1-.21-11.2,2.96-13.74,8.49l-12.53,4.98-38.22-16.26,11.76-4.09,26.64,9.27,26.82-8.48c-.34,2.25-.74,3.63-.74,6.08ZM493.11,317.81c-5.82.08-11.49.32-17.14-.06-6.35-.42-9.35-6.15-9.63-11.93-.38-7.84,4.71-14.4,12.51-15.1,7.56-.68,14.27,5.57,14.27,13.51v13.57ZM493.75,297.73c-.32.38-3.11-4.22-3.83-5.29,1.17-.31,5.02,3.86,3.83,5.29ZM515.84,316.62c-.11.4-1,.28-1.2.16-.82-.52-.38-2.3-1.51-2.17-1.03.12-.32,2.13-1.6,2.29-.78.1-1.28-.19-1.4-1.27-.05-.42-.12-.8-.34-.93-1.53-.9-.49,2.04-1.9,2.21-.8.1-1.38-.1-1.55-1.14-.06-.37-.17-.71-.28-.92-1.18-2.36-.82,1.93-2.31,2.04-2.06.16-.52-2.19-2.07-2.15-.71.02-.36,2-1.58,2.16-.83.11-1.26-.25-1.41-1.31-.06-.42-.16-.8-.35-.89-.44-.23-.98-.13-1.1.57-.11.59-.15,1.2-.43,1.44-.34.29-1.66.37-1.83-.14-.52-1.59-.27-3.19-.13-4.99l20.96-.02c.29,1.81.46,3.41.01,5.07ZM518.34,317.21c-1.21-2.03-.75-4.3-.37-6.21.8-3.97,1.62,6.5.37,6.21Z"></path>
    <path class="cls-4" d="M480.38,294.2c-5.97-.39-11.16,4.73-10.52,11.08.48,4.75,4.19,8.29,8.51,8.84,4.67.6,9.2-1.87,10.75-6.69,2.11-6.56-2.26-12.8-8.75-13.23ZM482.27,312.23c-4.01,1.34-8.77-.69-10.41-5.07-1.5-4.01.37-9.15,5.12-10.83,4.72-1.67,9.25.86,10.72,5.18,1.46,4.3-.84,9.19-5.43,10.72Z"></path>
    <path class="cls-4" d="M489.11,311.83c-1.53.27-2.04,1.63-1.59,2.97.36,1.08,1.57,1.86,3.06,1.34.94-.33,1.71-1.52,1.13-2.99-.3-.75-1.31-1.55-2.6-1.32ZM489.97,313.44c.3.21.44.69.25.88-.32.31-.73.42-.95.25-.4-.32-.47-.83-.03-1.14.25-.17.59-.09.74.01Z"></path>
    <path class="cls-4" d="M476.96,297.94c-3.82,1.57-4.79,6.09-3.39,9.15,1.61,3.52,5.59,4.81,8.7,3.53,3.82-1.57,5.02-5.62,3.75-9.03-1.33-3.57-5.16-5.26-9.07-3.65ZM481.2,309.27c-2.37.74-5.26-.51-6.35-3.11-1.05-2.51.05-5.81,3.22-6.97,3.01-1.1,5.74.75,6.64,3.36.92,2.68-.52,5.79-3.51,6.73Z"></path>
  </g>
  <g>
    <path class="cls-4" d="M183.22,696.56c.06-.45.5-.98.98-.99l17.16-.05c2.56,0,5.16.06,7.84-.22.19-1.52-1.03-1.88-1.27-2.75-.62-2.28-1.07-4.41-1.45-6.97l25.49-.08c2.9,0,4.75-2.22,4.75-5.03l.02-49.8c0-2.91-1.64-5.29-4.81-5.29l-70.01.03c-2.29,0-4.19,1.98-4.19,4.22l-.04,50.84c0,3.11,2.29,5.11,5.23,5.11h25.04c-.79,2.91-.89,5.74-2.19,8.02-1.18.3-3.06.03-3.87,1M162.51,627.03l68.89-.03c2.09.07,3.44,1.12,3.62,3.18v44.43s-75.56-.01-75.56-.01l-.06-44.46c0-1.89,1.23-2.91,3.1-3.11ZM188.13,693.72c.2-3.07.9-5.45,1.77-8.16l14.63.08,1.79,7.77-18.18.31ZM232.1,683.81h-69.6c-3.66,0-3.3-4.95-2.88-7.48l75.24-.05c.37,2.08.73,7.53-2.76,7.53Z"></path>
    <path class="cls-4" d="M232.23,629.48l-70.22.06-.07,42.56,70.44-.02-.16-42.6ZM163.67,670.35l-.02-31.62,44.05-.08.03,31.78-44.07-.08ZM230.64,670.42l-21.2-.08.06-31.64,21.21.03-.08,31.69ZM230.39,636.99h-66.55c-.37-1.85-.26-3.59-.06-5.71l66.58-.02c.55,1.76.61,3.25.03,5.73Z"></path>
    <path class="cls-4" d="M195.69,677.75c-1.69.94-1.5,3.05-.84,3.96.94,1.3,2.55,1.34,3.49.95,1.76-.75,1.78-2.73,1.26-3.9-.61-1.37-2.41-1.84-3.91-1.01ZM197.86,680.86c-.63.46-1.25.23-1.48-.12-.41-.6-.23-1.3.44-1.6.53-.23.97.06,1.17.33.41.56.21,1.14-.13,1.39Z"></path>
    <path class="cls-4" d="M166.71,641.22c-.12,4.86-.35,9.35.12,14.06l37.97-.1-.09-13.92-38-.04ZM168.32,653.62l-.05-10.61,34.75-.25.16,10.87h-34.86Z"></path>
    <path class="cls-4" d="M183.14,660.36l-15.47.05c-.59,0-.86.39-.89.65-.04.33.25.95.87.94l15.79-.06c.92,0,.9-.96.6-1.18-.19-.14-.43-.41-.9-.41Z"></path>
    <path class="cls-4" d="M167.69,659.05l15.46.02c.56,0,.99-.38,1.01-.67.03-.36-.38-.9-.98-.9l-15.61.02c-.67,0-1.03.54-.9.86.1.26.49.66,1.03.66Z"></path>
    <path class="cls-4" d="M203.95,657.56h-15.57c-.53,0-.98.59-.92.84.06.25.5.67.98.67h15.21c.78,0,1.06-.43,1.08-.67.03-.27-.23-.84-.78-.84Z"></path>
    <path class="cls-4" d="M188.4,661.98h15.34c1.08,0,1.13-1.06.75-1.36-.18-.14-.53-.23-1.04-.23l-15.01.02c-.54,0-.98.39-1,.67-.03.33.37.91.97.91Z"></path>
    <path class="cls-4" d="M183.09,663.35h-14.98c-.6,0-.88.08-1.06.27-.25.26-.34.92-.04,1.11.22.14.61.32,1.14.32l15.29-.09c.86,0,.86-.97.62-1.15-.19-.14-.53-.46-.98-.46Z"></path>
    <path class="cls-4" d="M203.97,663.36h-15.63c-.58,0-.83.51-.83.79,0,.36.3.85.89.85l15.81-.07c.8-.24.58-1.57-.25-1.57Z"></path>
    <path class="cls-4" d="M167.78,666.29c-.63.07-1.08.33-.98.95.04.24.31.57.86.6,15.95.78,11.2-2.79.12-1.55Z"></path>
    <path class="cls-4" d="M187.64,667.49c.68.35,10.74,1.19,9.84-.66-.69-1.41-12.85-.88-9.84.66Z"></path>
    <path class="cls-4" d="M211.71,656.54l.19,11.73,16.53-.22-.13-11.53-16.6.02ZM226.82,666.52l-13.45.09-.03-8.49,13.22-.06c.53,2.66.11,4.98.25,8.46Z"></path>
    <path class="cls-4" d="M212.81,648.44l14.5.03c.66,0,1.13-.39,1.02-.92-.07-.3-.45-.7-1.07-.7l-14.47-.06c-.71,0-1.14.31-1.07.82.05.41.4.83,1.08.83Z"></path>
    <path class="cls-4" d="M212.79,642.67l14.79-.09c.99,0,.86-1.06.59-1.17-.21-.09-.44-.35-.9-.35l-14.44.02c-.59,0-1.02.37-1.04.75-.02.45.32.85,1,.84Z"></path>
    <path class="cls-4" d="M212.44,645.49c-.83-.02,21.01.69,15.83-1.11-.2-.07-.47-.38-.97-.38l-14.52.02c-.68,0-1.12.43-1,.85.06.19.25.61.66.62Z"></path>
    <path class="cls-4" d="M212.8,651.4h14.62c.86,0,1.02-.92.77-1.1-.21-.16-.51-.44-.97-.44l-14.44.03c-.67,0-1.03.34-1.07.64-.06.46.42.87,1.09.87Z"></path>
    <path class="cls-4" d="M220.34,653.24c-.45-.92-7.95-1.25-9.09.34.66.89,10,1.53,9.09-.34Z"></path>
    <path class="cls-4" d="M165.69,632.64c-1.14.91-.89,2.5.1,3.15.65.42,1.81.47,2.54-.06.89-.65.89-2.09.31-2.79-.65-.77-1.95-1.1-2.95-.3Z"></path>
    <path class="cls-4" d="M170.91,632.48c-1.17.65-1.23,2.08-.71,2.7.87,1.02,2.04,1.17,2.71.77,1.16-.69,1.32-2.22.83-2.89-.68-.94-1.87-1.12-2.83-.58Z"></path>
    <path class="cls-4" d="M176.04,632.45c-1.16.45-1.3,1.97-.76,2.79.6.93,1.86,1.09,2.64.66,1.12-.61,1.21-1.86.8-2.71-.46-.97-1.64-1.15-2.68-.75ZM176.96,634.87c-.32,0-.58-.26-.58-.58s.26-.58.58-.58.58.26.58.58-.26.58-.58.58Z"></path>
  </g>
  <g>
    <path class="cls-4" d="M514.85,660.87c.54-2.43.4-5.03-.63-7.34-.74-.51-1.33-1.2-1.8-1.97-.19-.02-.54-.25-.61-.43-.34-.12-1.1-.01-1.08-.53-1.39-.68-3.27.06-4.63-.46-.42.39-1,.51-1.52.72-.85.34-1.28-.14-1.61-.87-.39-.21-.75-.87-1.08-1.13-2.88-2.25-6.5-7.42-7.76-6.43-.75.59-.75,1.18.1,1.88,2.12,1.74,3.68,3.85,5.53,5.83.69.75,1.99,1.1,2.06,2.18.06.93-1.05,1.61-1.38,2.38-.32.74,0,2.34-1.55,2.34l-26.47.04c-1.25,0-2.3-.25-3.16-.75-.98-.57-1.49-1.62-1.52-2.74,0-.36.19-.76.13-1.12-.67-3.71.39-7.6-.52-11.42-.25-1.05-2.05-1.51-2.21-2.53-.22-.11-.33-.45-.54-.58-4.88-3-3.34-5.08-3.5-6.15-.29-2.02.19-4.14-.47-6.32-1.67-.55-3.3-.4-4.8-.56-3.31-.34-4.38,1.91-8.78-3.94-.87-.19-1.71-.62-2.62-.63-.53.1-1.06.17-1.59.21-.75,1.16-2.19,2.14-3.26,3.01-.6.49-.62,1.53-2.01,1.47l-3.67-.17c-1.06-.05-2.08.15-3.14-.02-5.36-.82.28,10.74-4.55,11.66-.14.48-.77.82-1.12,1.06-.67,1.16-1.83,2.26-2.99,3.01-.24.58-.17,1.81-.61,2.28.4,6.86.31,13.77.06,20.64,0,.19.17,7.03.53,7.56.81,1.21,8.03.9,9.83.85,3.98-.12,7.96-.15,11.94,0,1.73.06,3.47.04,5.19,0,3.07-.08,6.13.08,9.19.22,2,.09,4.11-.45,6.41-.19,1.43.16,2.58-.61,3.01-1.66v-9.31c-.26-.12-.49-.43-.78-.44-1.35-.04-.84,1.94-1.15,5.1-.1.97.61,1.99-.05,3.06-3.21-3.3-6.3-6.04-8.85-9.27-.82-1.04-2.93-1.59-3.22-3.19-.3-.16-.66-.23-.8-.46-.33-.55-.13-1.17.44-1.54,2.5-1.63,4.12-4.12,6.7-5.25.16-1.37,1.89-1.75,2.71-2.54.89-.85,1.51-2.14,3.07-2.67l.2,10.24c.02,1.27.85,2.24,1.17,3.24,1.34.72,2.7,1.84,4.28,1.68l28.46.2c.63,1.56,1.38,2.84,2.32,4.38l-7.86,8.43c-.37.39-.34.95-.19,1.26.24.49,1.07.72,1.62.18l4.2-4.15c.64-1.24,2.01-2.58,3.31-3.43,1.48-.97,3.46-.05,4.91-.11,1.1,0,2.15-.35,3.21-.65.6-.83,1.64-1.48,2.46-2.04.21-.76.35-1.67,1.07-2.11ZM444.38,622.39c1.42-.22,2.33,1.05,3.41,2.48-1.94.28-3.79.17-6.34,0,.8-.96,1.54-2.27,2.93-2.48ZM428.07,637.72c.27,2.27.31,4.13.03,7-1.44-.93-2.51-1.94-3.84-3.2,1.17-1.4,2.28-2.49,3.81-3.8ZM423.52,643.54l13.7,11.62-13.68,13.37-.02-24.99ZM464.25,670.06l-39.32.05,13.54-13.64,3.91,3.25c1.58,1.11,3.66.9,5.06-.42l3.3-2.83,13.51,13.59ZM445.9,658.14c-1.25,1.09-2.88-.02-3.57-.92l-12.29-10.6.11-19.84h29.13s.04,19.59.04,19.59c-4.24,4.16-8.76,7.66-13.43,11.76ZM461.24,644.72c-.39-2.36-.33-4.69,0-7,1.41,1.13,2.35,2.04,3.85,3.57-1.04,1.39-2.29,2.32-3.85,3.44ZM503.54,654.32c1.21-.01,1.91,1.78,2.66,2.49-1.29.43-2.59.41-3.95.1-.14-.7.38-2.58,1.29-2.59ZM503.93,661.54c-1.16-.2-1.77-1.3-1.69-2.36,1.12-.21,2.04-.26,3.68-.03-.37.88-.97,1.62-2,2.39ZM512.27,661.17c-1.42,2.11-4.19,3.22-6.67,1.97l4.24-4.74c-.86-2.54-3.13-3.58-4.34-5.75,2.45-1.19,4.96-.09,6.44,1.67,1.63,1.94,1.7,4.8.33,6.84Z"></path>
    <path class="cls-4" d="M472.92,676.99l-1.56-2c-2.04-.42-4.24.99-6.22,1.08-.5.99-1.65,1.27-2.66,1.52-.34.09-.64.49-1.03.49-.34.89-1.38.96-2.04,1.47-.71.55-1.39.98-2.23,1.33-.55.23-.97,1.27-1.72,1.08-.73-.18-.99-1.04-1.2-1.65-2.08-1.06-4.39-1.32-6.74-1.24-.93.03-1.85-.2-2.67-.33-1.74,0-3.56.18-5.19-.64-.33-.16-1.11.06-1.08-.48-.74.17-1.41-.48-2.05-.65-1.69-.44-3.49-.47-5.15-1.03-2.77.47-5.74.54-8.37,1.62-1.75.94-3.11,2.96-5.09,3.59-.24.08-.38.43-.63.52-.34.9-1.11,1.48-1.9,1.88l-1.66.85c-.49.25-.67.65-1.03.04-.25-.43-.42-.8-.59-1.17-.68,0-1.44-.12-2.13,0-2.28,2.06-4.98,3.75-7.87,4.93.23.65.45,1.3.67,1.95,2.85-1.14,5.63-2.78,8.26-4.88l10.8,15.14c-1.41,1.97-5,3.23-5.66,4.87-.11.28.03,1.14.65,1.03.94-.16,1.51-.81,2.2-.98l5.01-3.77c-.19-.71,0-1.56-.43-2.21-.19-.29-.57-.4-.58-.81-.02-.51.22-.6.56-.84,1.22-.85,3.34-2.06,4.67-2.13.58-.03,1.65-1.07,2.08-.02,6.24-.09,12.99,1.17,19.21.56.72-.64,1.71-.77,2.62-1,.35-.65,1.37-.9,2.01-1.06.13-.74.96-.96,1.62-1.01.3-.51.93-.9,1.5-1,.02-.77.93-1.05,1.59-1.08.77-.82,2.01-2.11,3.23-2.2.87-1.09,2.19-1.85,3.49-2.35.36-.84,1.2-1.47,2.11-1.64.25-.64.9-.89,1.52-1.05.08-.21.44-.29.53-.49.39-.86,1.26-1.28,2.11-1.6.95-1.26,1.51-3.1,1.07-4.66ZM470.28,680.22c-4.26,3.09-18.92,14.42-23.02,14.21l-17.47-.9c-3.11-.16-5.59,1.2-7.97,3.37l-7.31-10.18c9.23-7.2,11.99-11.38,24.68-6.76,5.7,2.07,13.59-.42,14.2,3.04.24,1.38-.92,2.68-2.52,2.64l-13.74-.36c-.58-.02-1.02.51-1.02.8,0,.27.19.92.76.95l13.65.52c2.73.1,3.33-1.74,4.99-2.96,3.98-2.93,8.47-5.18,12.73-7.74.89-.53,2.31.08,2.77.74.42.61.3,1.9-.7,2.63Z"></path>
    <path class="cls-4" d="M452.6,636.12c-.69-3.93-3.55-6.87-7.2-7.18-3.68-.31-7.25,1.93-8.29,5.59-1.01,3.57-.16,5.51,1.74,8.52-.14,2.29-2.34,4.55-2.07,7.07.12,1.15,2.12-.14,2.81-.05,1.17.15,1.3,1.84,2.15,2.6,1.85-1.44,1.88-3.67,2.99-5.63l2.38,5.45c1.56-.68,1.42-1.91,2.42-2.51,1.03.26,2.07.95,3.1.37l-1.97-7.13c.51-2.28,2.4-4.53,1.95-7.11ZM441.79,649c-.84-.78-1.4-1.16-2.59-1.28.41-.99.51-2.3,1.46-3.23.59-.58,2.06.36,2.65.78-.35,1.46-.7,2.34-1.53,3.73ZM447.44,649.06c-.42-1.22-1.49-2.52-1.15-3.92.16-.65,1.78-.96,2.31-.7.76.36.83,1.41,1.49,3.1-.9.61-1.93.7-2.65,1.53ZM450.07,639.92c-1.03,2.26-3.32,3.38-5.48,3.3-2.09-.07-4.38-1.11-5.37-3.13-1.39-2.85-.76-5.92,1.31-7.71,2.38-2.05,5.4-2.18,7.9-.23,2.11,1.64,3.09,4.58,1.64,7.77Z"></path>
    <path class="cls-4" d="M443.82,632.15c-3.07.62-4.39,3.52-3.88,5.98.53,2.56,3.01,4.1,5.61,3.59,2.53-.49,4.31-2.92,3.76-5.81-.4-2.12-2.65-4.32-5.5-3.75ZM445.89,639.83c-1.29.71-3.13.04-3.92-1.28-.92-1.53-.3-3.65,1.49-4.45,1.71-.76,3.47.12,4.04,1.71.51,1.44-.1,3.19-1.61,4.02Z"></path>
  </g>
  <g>
    <path class="cls-4" d="M202.57,253.01c-1.4.39-2.01,2.16-3.34,2.79-1.5-.59-2.57-2.27-3.53-3.3l-5.7-2.95c-1.7-.88-3.99-.94-5.65-1.84-3.94.34-8.13-.06-11.98,1.06-3.13.91-5.8,3.7-8.66,5.1-.01.58-1.15.79-1.23,1.23-.13.76-1.05.93-1.43,1.43-6.83,9.15-8.05,21.89-.71,31.25,1.04,1.33,2.48,2.88,3.69,4.04,8.47,8.09,21.23,8.12,30.86,2.11,2.19-.1,4.27,3.27,3.62,5.31l16.54,17.33c1.98.85,3.54,2,6.11.92,1.37-.58,2.64-2.11,3.63-3.85.06-.83-.56-2.45-.04-3.2-.85-1.3-1.92-2.47-2.62-3.86-2.75-1.74-5.1-4.47-7.16-6.96-.69-.35-1.26-.89-1.62-1.57l-.56-.6c-1-1.07-2.46-2.38-3.48-3.43-.63-.65-2.18-1.71-2.96-2.32-2.01-.37-3.65-.98-4.54-2.78-.22-.44-1.31-.5-.67-1.5l2.84-4.44c.81-1.26.19-3.65,1.58-4.7l.24-6.66c.15-4.04-1.73-7.79-3.36-11.49-.36-.82-2.19-1.71-1.75-2.83.87-2.23,2.89-3.35,4.87-2.86.98.25,2.21-.38,3.22-.06,3.87-2.37-5.06-1.68-6.2-1.36ZM205.32,292.98l16.36,16.17c1.99,1.96,1.44,4.83-.46,6.2-1.92,1.39-4.08.64-5.86-1.2l-15.34-15.91c1.8-2.12,3.18-3.53,5.3-5.26ZM202.44,292.73c-.04,1.16-1.45,1.76-2.44,2.81-1.01-.98-2.75-1.92-2.7-3.26.14-1.19,1.64-1.93,2.52-2.74.97.96,2.67,1.86,2.62,3.19ZM202.7,265.35c3.75,10.63-.7,22.6-11.09,28.31-12.97,7.14-28.53.39-33.26-13.03-4.75-13.48,3.73-28.38,18.25-30.8,11.48-1.91,22.33,4.83,26.09,15.51Z"></path>
    <path class="cls-4" d="M232.63,265.83c-2.27.49-4.5-.04-6.76,0-1.76.03-3.46.1-5.23.03-2.69-.1-5.59.5-8.27-.02-.93,1.05-1.49,2.59-1.31,4.03.23,1.81.22,3.56.1,5.37-.08,1.14.04,2.39.04,3.54l.03,11.42c0,1.18,1.05,2.05,2.17,2.06l7.72.07h2.72s8.18,0,8.18,0h4.72c1.18,0,2.08-.9,2.09-2.12l.11-13.46.09-3.58c.03-1.4-.31-2.78.01-4.19.19-.82-.52-1.82-.75-2.56l-1.55-.58c-1.29.61-2.87-.28-4.13-.01ZM212.76,290.76l-.11-19.54,24.73-.12.05,19.59-24.67.08ZM237.07,267.61c.47,0,.5,1.95-.2,1.96l-16.29.14c-.95,0-.58-1.36-1.62-1.67-.39-.12-.38.88-.47,1.19-.09.36-1.17.68-1.33.04-.1-.4.03-.81-.04-1.17-.05-.25-.67-.34-.72.12-.06.61.13,1.09-.09,1.23-.45.29-1.48.35-1.38-.76,0-1.17-1.14-1-1,.14.07.87-.74.84-1.18.55-.24-.16-.12-.64-.12-1.2,0-.43.48-.53,1.29-.53l23.15-.03Z"></path>
    <path class="cls-4" d="M212.86,249.85c-1.37,1.97-2.25,4.11-1.97,6.53.73,1.94,2.18,3.74,4.1,4.71,2.57.51,4.96-.07,7.12-1.54.03-1,1.18-2.26,1.63-3.09-.16-.44.1-1.86-.55-2.11-1.67-.64-3.35.3-5.14.03,0-2.31.36-4.33-.58-6.13-1.64-.17-3.05,1.62-4.6,1.61ZM222.01,255.78c-.45,2.77-2.63,4.1-5.15,3.96-2.22-.13-4.25-1.9-4.42-4.6-.14-2.12,1.35-4.6,3.98-4.99l.25,5.41,5.34.21Z"></path>
    <path class="cls-4" d="M194.97,321.32c-.17-.07-.32-.24-.82-.24l-24.93.05c-.21.83.05,1.16.29,1.35.29.23.82.19,1.29.19l23.8-.08c.7,0,.65-1.16.36-1.28Z"></path>
    <path class="cls-4" d="M195.2,315.49c-.07-.38-.45-.66-1.04-.67h-23.83c-.78,0-1.08.47-1.01.96.21,1.5,9.1.69,10.86.68l14.13-.11c.73,0,.94-.61.89-.87Z"></path>
    <path class="cls-4" d="M195.04,308.83c-.15-.14-.37-.31-.88-.31l-23.83-.03c-.67,0-1.02.37-1.01.68.01.51.37.87,1.02.87h24.02c.96,0,.98-.94.68-1.21Z"></path>
    <path class="cls-4" d="M194.17,302.24h-23.82c-.63,0-1.01.41-1.02.7-.02.47.27.84.96.84l24.11-.06c.92,0,.91-1.02.65-1.17-.16-.09-.42-.3-.88-.3Z"></path>
    <path class="cls-4" d="M218.93,246.95c-.5,2.15-.36,4.07-.31,6.31,2.29.23,4.36.55,6.48.02.56-1.94-.43-3.36-1.41-5.03-.71-.05-1.13-.71-2-1.14-.73-.36-1.8-.16-2.76-.16ZM223.7,251.65c-1.13.57-2.23.48-3.34.09-.22-1.22-.38-2.17-.12-3.31,1.67.27,2.87,1.37,3.46,3.23Z"></path>
    <path class="cls-4" d="M169.34,306.02c.23.68,12.12,1,12.73-.28-1.54-1.35-13.38-1.64-12.73.28Z"></path>
    <path class="cls-4" d="M181.37,318.48c-.09-.1.1-.71-.19-.74-3.93-.49-8.18-1.41-12.43.59.05,1.25,13.48,1.16,12.62.15Z"></path>
    <path class="cls-4" d="M169.33,312.24c.28.94,11.4.97,11.26-.13-1.43-1.62-11.77-1.62-11.26.13Z"></path>
    <path class="cls-4" d="M161.02,324.47c2.67,1.02,5.2-.44,5.78-3.16-2.28-.44-4-.35-5.94-.03-.18.82-.6,2.89.16,3.19ZM164.07,322.48c-.16.66-.73.99-1.28.99-.58,0-1.02-.3-1.32-.99.85-.15,1.22-.12,2.61,0Z"></path>
    <path class="cls-4" d="M163.23,319.39c1.43-.83,2.72-2.32,3.48-3.79.37-.72-.88-.95-1.15-.65-.48.55-1.76,1.98-2.33,2.25-.61.29-1.64-.8-2.29-.33-1.07.76,1.42,3.02,2.29,2.51Z"></path>
    <path class="cls-4" d="M162.84,304.63c-.42.08-1.2-1.03-1.84-.57-1.01.73,1.32,3,2.39,2.33,1.58-.98,2.6-2.51,3.49-3.67-1.77-1.74-2.47,1.62-4.04,1.91Z"></path>
    <path class="cls-4" d="M230.12,254.61c.15,1.13,4.12.36,6.61.77.47.08,1.02-.18,1.57-.31.47-.11.43-.73.44-1.21h-7.65c-.57,0-1.03.33-.98.75Z"></path>
    <path class="cls-4" d="M160.92,310.6c-.8.98,1.75,3.09,2.83,2.06,1.27-1.22,2.72-2.33,2.91-3.65-2.17-1.93-1.32,3.12-5.74,1.6Z"></path>
    <path class="cls-4" d="M230.15,251.55c-.42,1.39,7.35.56,8.56.76.09-.74-.27-1.35-1.05-1.49l-6.56.16c-.48.01-.88.32-.95.57Z"></path>
    <path class="cls-4" d="M237.26,249.8c.52.03,1.45-.36,1.66-1.47-3.02-.39-5.91-.18-8.8-.16-.75,1.94,5.01,1.52,7.13,1.63Z"></path>
    <path class="cls-4" d="M169.63,323.71c-.39-.04-.39,1.18-.06,1.3.17.06.24.11.76.21,1.67-.4,3.46.98,4.91-1.12-2.09-.96-3.96-.24-5.61-.4Z"></path>
    <path class="cls-4" d="M231.06,261.07c.87-.43,2.11-.38,3.03-1.36-1.04-.47-7.31-1.11-6.9.49.06.24.11.52.24.76.9-.2,2.67-.13,3.64.11Z"></path>
    <path class="cls-4" d="M227.4,257.94c2.56.09,4.75.15,7-.02,1.65-2.07-7.01-1.19-6.82-1.21-.52.06-.64,1.22-.17,1.23Z"></path>
    <path class="cls-4" d="M227.79,249.42c.4.17.91.02.92-.24.02-.54.04-.82-.2-.89-.45-.14-1.07-.24-1.33.37.25.68.39.66.61.76Z"></path>
    <path class="cls-4" d="M227.52,251.09c-.39.51-.36.85-.04,1.01.36.17,1.11.35,1.22.1.17-.39.29-.87-.03-1.05-.37-.21-.71-.22-1.15-.06Z"></path>
    <path class="cls-4" d="M228.49,254.02c-.41-.15-1.13-.25-1.29.36.16.65.33.71.6.74.31.03.85-.06.87-.31.03-.53.06-.71-.18-.8Z"></path>
    <path class="cls-4" d="M175.99,252.6c-11.74,2.52-18.19,14.04-15.85,24.91,2.47,11.44,13.6,18.32,24.79,15.97,11.29-2.37,18.29-13.44,16.1-24.52-2.23-11.3-13.24-18.9-25.04-16.36ZM180.93,292.21c-5.9.02-11.63-2.16-15.5-7.48l30.22.02c-3.68,4.9-9.16,7.44-14.73,7.46ZM170.21,282.56c-.34.59-1.62.65-2.15.37-.72-.39-1.11-4.52.42-4.76,1.14-.18,2.09.11,1.94,1.96-.08,1,.13,1.84-.2,2.43ZM175.27,282.72l.02-10.36c.57-.51,2.03-.51,2.69-.02-.46,3.37,2.05,13.16-2.71,10.38ZM182.93,277.77c.83-.56,1.98-.53,2.83.02.14,1.67.11,2.96.05,4.92-.93.51-1.85.42-2.77.14-.28-1.74-.18-3.23-.12-5.09ZM190.65,282.74l.02-11.79c.18-.66,2.04-.38,2.7-.12l.08,11.87c-.64.54-1.95.53-2.8.05ZM195.99,283.12c-.6.05-1-.41-1.01-1.2l-.11-12.61c-1.86-.36-3.68-.34-5.62-.04l-.33,13.51c0,.38-1.07.29-1.24.13-.94-.82-.06-4.98-.63-6.84-1.84-.33-3.62-.37-5.48-.06-.67,1.97.68,7.03-1.12,6.99-1.62-.04-.35-9.91-.97-12.27-1.86-.35-3.54-.4-5.58-.16l-.3,11.9c-.02.7-1.58.67-1.65.03-.2-2.03.25-3.69-.23-5.57-1.83-.39-3.67-.41-5.51,0-.51,1.85.1,3.58-.31,5.6-.19.9-1.79.52-2.24-.31-4.47-8.29-2.34-18.37,4.83-24.21,7.06-5.75,17.36-5.67,24.43.33,11.08,9.39,5.9,24.54,3.08,24.77Z"></path>
    <path class="cls-4" d="M231.42,277.95l-.68,11.59c1.36.24,2.98.53,4.81-.14l-.14-11.75c-1.21-.25-3.26-.5-3.99.3ZM233.78,288.13c-2.03,1.7-1.06-8.58-1-8.98.04-.25,1.28-.17,1.28.5l.03,7.47c0,.5-.13.87-.32,1.02Z"></path>
    <path class="cls-4" d="M214.78,282.71c.22.46.68.32,1.22.22,6.61-1.21,11.61-5.13,17.04-7.93.68-.35,1.6.3,1.45-1.46-.12-1.41-.8-1.17-1.64-1.34-1.31-.27-.96,1.08-1.59,1.59-4.71,3.81-10.22,6.2-15.96,7.95-.58.18-.65.73-.54.98Z"></path>
    <path class="cls-4" d="M225.73,280.79c-.22,2.87-.41,5.65-.11,8.63,1.42.55,2.76.49,4.17.14.21-3.04.49-5.85-.19-8.7-1.37-.43-2.56-.38-3.87-.07ZM227.86,288.68c-1.26.33-1-6.24-.56-6.55,1.92-1.32,1.34,5.61.56,6.55Z"></path>
    <path class="cls-4" d="M220.12,282.7c-.02,1.93-.56,4.5.06,6.49.29.91,3.36.96,3.75.08.94-2.15.45-4.53.18-6.45-1.4-.43-2.5-.47-3.98-.12ZM222.14,288.63c-1.19-1.42-1.2-3.56,0-4.9,1.24,1.76,1.14,3.34,0,4.9Z"></path>
    <path class="cls-4" d="M214.78,285.59c-.78.65-.59,3.66-.03,3.92.51.24,3.49.53,3.84-.19.25-.51.52-2.96-.36-3.69-.6-.5-2.92-.49-3.45-.04ZM216.99,288.22c-.34.22-.84.16-1.03-.15-.19-.32-.28-1.02.21-1.12.43-.1.8.03.93.21.26.33.21.86-.11,1.07Z"></path>
    <path class="cls-4" d="M215.07,275.65l6.11.04c.48,0,.79-.05,1.01-.3.17-.19.04-.65-.12-.83-.14-.16-.39-.24-.89-.25l-6.18-.04c-.57,0-.77.39-.81.64-.07.42.27.73.88.74Z"></path>
    <path class="cls-4" d="M220.67,272.91c-2.35-1.28-4.65-1.27-6.71.05,2.25.87,4.43,1.06,6.71-.05Z"></path>
    <path class="cls-4" d="M191.91,260.77c-3.79.1-.17,3.07-5.45,6.56-2.44,1.61-6.25.14-7.13-2.6-.45-1.41-.84-2.56-2.11-2.85-.79-.18-2.63-.02-2.77,1.12-.47,3.78-3.33,5.83-6.96,5.83-1.15,0-1.41,2.09-1.14,2.83.34.96,1.18,1.75,2.21,1.84,4.19.35,1.86-5.74,7.21-6.59,6.82-1.08,4.76,6.26,8.73,5.94,1.63-.13,2.05-1.17,2.51-2.96.37-1.44,2.47-3.68,3.96-3.86,2.07-.26,3.54-.32,3.58-2.57.03-1.35-1.03-2.72-2.66-2.67ZM169.58,271.85c-.35.35-1.1.23-1.5-.29-.25-.32-.3-.98.3-1.37.48-.32.95-.17,1.25.15.38.4.45,1.02-.04,1.51ZM177.15,265.22c-.38.26-1.04.14-1.4-.3-.34-.4-.18-1.1.42-1.43.5-.26.94-.03,1.18.26.36.43.34,1.1-.2,1.47ZM185.08,270.92c-.15.25-.55.42-.98.36-.39-.06-1.14-.58-.7-1.44.39-.78,1.14-.46,1.55-.26.35.17.44.84.14,1.35ZM192.9,263.92c-.43.47-.8.55-1.11.46-.59-.18-1.22-.95-.58-1.72.47-.57,1.11-.33,1.39-.12.51.39.6,1.05.3,1.38Z"></path>
  </g>
  <text class="cls-3" transform="translate(169.04 156.48)">
    <tspan x="0" y="0">S</tspan>
    <tspan class="cls-13" x="8.75" y="0">C</tspan>
    <tspan x="18.7" y="0">E</tspan>
    <tspan class="cls-16" x="28.32" y="0">L</tspan>
    <tspan class="cls-6" x="35.28" y="0">T</tspan>
    <tspan x="42.26" y="0">A </tspan>
    <tspan x="-17.42" y="18">DEL</tspan>
    <tspan class="cls-2" x="11.23" y="18">L</tspan>
    <tspan x="19.27" y="18">A GARA</tspan>
  </text>
  <text class="cls-3" transform="translate(408.57 156.48)">
    <tspan class="cls-10" x="0" y="0">V</tspan>
    <tspan x="8.6" y="0">A</tspan>
    <tspan class="cls-14" x="18.57" y="0">L</tspan>
    <tspan class="cls-15" x="26.24" y="0">U</tspan>
    <tspan class="cls-6" x="36.95" y="0">T</tspan>
    <tspan x="43.92" y="0">AZIONE</tspan>
    <tspan x="-24.38" y="18">DEL</tspan>
    <tspan class="cls-11" x="4.28" y="18">L</tspan>
    <tspan class="cls-15" x="11.03" y="18">’INVESTIMEN</tspan>
    <tspan class="cls-12" x="105.01" y="18">T</tspan>
    <tspan x="112.68" y="18">O</tspan>
  </text>
  <text class="cls-3" transform="translate(403.42 344.94)">
    <tspan x="0" y="0">SOPRAL</tspan>
    <tspan class="cls-1" x="58.03" y="0">L</tspan>
    <tspan x="65.69" y="0">UOGO</tspan>
  </text>
  <text class="cls-3" transform="translate(116.55 344.94)">
    <tspan x="0" y="0">ANALISI DIS</tspan>
    <tspan class="cls-13" x="84.54" y="0">C</tspan>
    <tspan x="94.49" y="0">IPLINARE</tspan>
  </text>
  <text class="cls-3" transform="translate(570.58 521.06)">
    <tspan x="0" y="0">RE</tspan>
    <tspan class="cls-7" x="19.7" y="0">D</tspan>
    <tspan x="30.05" y="0">AZIONE </tspan>
    <tspan x="-21.76" y="15.84">OFFER</tspan>
    <tspan class="cls-6" x="27.71" y="15.84">T</tspan>
    <tspan x="34.68" y="15.84">A TE</tspan>
    <tspan class="cls-13" x="66.61" y="15.84">C</tspan>
    <tspan x="76.57" y="15.84">NICA</tspan>
  </text>
  <text class="cls-3" transform="translate(167.74 727.86)">
    <tspan x="0" y="0">EDITING</tspan>
  </text>
  <text class="cls-3" transform="translate(40.28 519.98)">
    <tspan x="0" y="0">STUDIO DEL</tspan>
    <tspan x="4.24" y="18">PROGET</tspan>
    <tspan class="cls-9" x="63.68" y="18">T</tspan>
    <tspan x="71.34" y="18">O</tspan>
  </text>
  <text class="cls-3" transform="translate(362.53 727.86)">
    <tspan class="cls-8" x="0" y="0">C</tspan>
    <tspan x="9.72" y="0">ONSEGNA DEL</tspan>
    <tspan class="cls-11" x="116.06" y="0">L</tspan>
    <tspan class="cls-5" x="122.81" y="0">’</tspan>
    <tspan x="125.78" y="0">OFFER</tspan>
    <tspan class="cls-6" x="175.25" y="0">T</tspan>
    <tspan x="182.22" y="0">A</tspan>
  </text>
  <text class="cls-3" transform="translate(260.04 519.98)">
    <tspan class="cls-10" x="0" y="0">V</tspan>
    <tspan x="8.6" y="0">A</tspan>
    <tspan class="cls-14" x="18.57" y="0">L</tspan>
    <tspan class="cls-15" x="26.24" y="0">U</tspan>
    <tspan class="cls-6" x="36.95" y="0">T</tspan>
    <tspan x="43.92" y="0">AZIONI DELLE</tspan>
    <tspan x="-28.94" y="18">MIGLIORIE </tspan>
    <tspan class="cls-8" x="50.54" y="18">C</tspan>
    <tspan x="60.26" y="18">ON LE IMPRESE</tspan>
  </text>
  <path class="cls-4" d="M280.19,125.23c6.6-6.94,15.04-11.88,24.33-14.23s19.16-1.71,28.11,1.55c5,1.82,9.75,4.45,13.87,7.82.89.73,2.27,1.35,3.32.53.93-.72.69-2.26-.16-2.96-8.3-6.8-18.44-11.19-29.15-12.3s-20.71.91-29.84,5.67c-5.19,2.71-9.91,6.17-13.95,10.42-.86.9-.7,2.09.16,2.96.69.7,2.46,1.43,3.32.53h0Z"></path>
  <path class="cls-4" d="M354.85,110.79c-3.92,5.46-7.84,10.93-11.76,16.39-1.67,2.33,2.81,3.99,4.18,2.14,2.73-3.69,5.46-7.39,8.2-11.08l-4.31-.3c1.67,3.25,3.34,6.49,5.01,9.74l1.68-2.58c-4.75.38-9.5.75-14.26,1.13-1.03.08-2.23.98-1.9,2.12.35,1.22,1.89,1.57,2.98,1.49,4.75-.38,9.5-.75,14.26-1.13,1.4-.11,2.34-1.29,1.68-2.58-1.67-3.25-3.34-6.49-5.01-9.74-.68-1.32-3.44-1.47-4.31-.3-2.73,3.69-5.46,7.39-8.2,11.08l4.18,2.14c3.92-5.46,7.84-10.93,11.76-16.39.69-.97.32-2.02-.72-2.56-.93-.48-2.75-.57-3.46.42h0Z"></path>
  <path class="cls-4" d="M371.56,187.71c-21.95,13.74-42.87,29.13-62.52,46.01-5.55,4.77-10.99,9.65-16.33,14.65-1.34,1.26,1.58,5.27,2.76,4.17,18.91-17.69,39.15-33.97,60.5-48.63,6.03-4.14,12.15-8.15,18.34-12.03,1.46-.91-1.26-5.11-2.76-4.17h0Z"></path>
  <path class="cls-4" d="M286.55,236.62c-2.92,5.75-4.41,12.6-3.58,19.04.39,3.02,2.07,5.6,4.81,7,3.29,1.68,6.9,1.52,10.47,1.27,1.44-.1,2.43-1.82,1.65-3.06-2.98-4.77-5.97-9.54-8.95-14.31-1.44-2.3-6.04-.66-4.42,1.94,2.98,4.77,5.97,9.54,8.95,14.31l1.65-3.06c-2.34.16-5.03.38-7.12-.91-1.92-1.19-2.19-3.4-2.24-5.48-.13-5.36,1.11-10.57,3.53-15.35.59-1.15-.57-2.41-1.61-2.72-1.28-.37-2.56.17-3.15,1.33h0Z"></path>
  <path class="cls-4" d="M297.76,314.76c16.92-1.35,33.85-2.7,50.77-4.05l14.61-1.17c.73-.06-.35-1.59-.51-1.82-.34-.5-1.46-2.22-2.23-2.15-16.92,1.35-33.85,2.7-50.77,4.05l-14.61,1.17c-.73.06.35,1.59.51,1.82.34.5,1.46,2.22,2.23,2.15h0Z"></path>
  <path class="cls-4" d="M358.91,289.78c-1.55,11.02-1.44,22.2.38,33.18.24,1.43,4.82,2.98,4.69,1.27-.67-8.41-1.35-16.82-2.02-25.23l-3.87-.23c2.07,1.38,4.14,2.76,6.21,4.14,1.63,1.09,3.94,1.98,3.86,4.25-.14,4.47-5.28,5.46-8.74,5.99-1.15.17-.19,1.4.26,1.74.93.7,2.16,1.1,3.32.92,4.2-.64,9.8-2.13,9.85-7.38.02-2.57-2.12-4.09-4.04-5.38-2.55-1.7-5.11-3.4-7.66-5.1-.56-.37-4.01-1.92-3.87-.23.67,8.41,1.35,16.82,2.02,25.23l4.69,1.27c-1.78-10.77-1.95-21.76-.43-32.57.24-1.69-4.45-3.18-4.63-1.89h0Z"></path>
  <path class="cls-4" d="M428.5,357.42c-16.6,1.11-33.18,2.63-49.7,4.57-16.4,1.92-32.76,4.26-49.04,7s-32.66,5.93-48.86,9.52c-16.2,3.58-32.32,7.58-48.32,11.98-7.98,2.2-15.94,4.49-23.87,6.89-7.75,2.34-15.6,5.01-23.73,5.64-7.6.59-14.77-1.15-21.74-4.09s-13.43-6.6-20.29-9.59c-14.3-6.22-29.82-9.64-45.43-9.75-14.47-.1-28.97,2.82-42.14,8.86-12.24,5.61-23.29,13.78-31.95,24.12-9.13,10.91-15.11,24.1-18.67,37.81C1.13,464.37-.1,478.92,0,493.34c.1,13.85,1.54,27.99,6.39,41.05,4.54,12.21,12.27,23.04,23.06,30.47,10,6.88,21.86,10.75,33.88,12.07,12.34,1.35,24.92.13,36.83-3.34,12.16-3.54,23.57-9.61,33.62-17.28,10.25-7.83,19.19-17.43,26.27-28.21s12.27-22.66,15.22-35.14c3.17-13.4,3.61-27.34,1.68-40.95-1.94-13.61-6.34-26.89-13.01-38.91-3.23-5.82-6.95-11.34-11.17-16.49-.74-.9-2.25-1.14-3.33-.92-.83.17-1.87.88-1.13,1.78,8.57,10.44,15.05,22.45,19.25,35.28s6.1,26.39,5.48,39.88-3.57,25.95-8.85,37.91c-5.11,11.57-12.21,22.24-20.84,31.48-8.57,9.17-18.78,16.97-29.99,22.65s-22.24,8.8-34.15,9.71-23.19-.39-33.89-4.63-20.5-11.76-27.11-21.67c-7.56-11.34-11.04-25.02-12.43-38.44s-1.11-28.14.73-41.98,5.58-27.78,12.38-40.17,15.71-21.84,26.89-29.4,23.75-12.42,36.93-14.51c14.71-2.33,29.89-1.07,44.16,3.06,7.14,2.06,13.92,4.93,20.58,8.2s13.29,6.71,20.41,8.91c7.58,2.33,15.36,2.74,23.18,1.51s15.87-3.98,23.68-6.31c15.57-4.65,31.26-8.9,47.05-12.76,15.81-3.87,31.71-7.34,47.69-10.42,15.98-3.08,32.04-5.76,48.15-8.04,16.07-2.28,32.2-4.15,48.36-5.62,7.82-.71,15.66-1.32,23.5-1.85.81-.05,2.23-.38,1.95-1.48-.26-1.03-2.07-1.41-2.93-1.35h0Z"></path>
  <path class="cls-4" d="M169.37,528.08c10.6-.63,21.2-1.26,31.8-1.89,1.09-.06-.89-4.41-2.14-4.34-10.6.63-21.2,1.26-31.8,1.89-1.09.06.89,4.41,2.14,4.34h0Z"></path>
  <path class="cls-4" d="M464.74,516.22c15.35-3.96,30.71-7.91,46.06-11.87,2.5-.64-.83-4.19-2.69-3.71-15.35,3.96-30.71,7.91-46.06,11.87-2.5.64.83,4.19,2.69,3.71h0Z"></path>
  <path class="cls-4" d="M522.59,521c-11.19-21.62-9.95-48.21.81-69.75,10.23-20.48,28.59-36.09,49.26-45.41,24.39-11.01,51.86-13.23,78.22-10.38,23.49,2.54,49.18,8.92,62.8,30.03,6.88,10.66,10.07,23.3,11.07,35.83,1.08,13.56-.05,27.33-1.73,40.8-2.88,23.02-8.78,47-23.86,65.26-15.35,18.59-38.68,28.31-62.15,31.35-25.05,3.25-51.55-.86-73.39-13.91-19.3-11.53-34.53-30.25-40.47-52.07-5.73-21.05-1.53-44.93,11.88-62.28,3.2-4.14,6.87-7.88,11-11.08.89-.69,1.5-1.99.64-2.96s-2.46-.8-3.38-.09c-18.43,14.26-28.23,37.69-27.47,60.77.77,23.55,13.03,45.74,30.6,61.05,19.54,17.01,45.24,25.27,70.92,25.77,25.21.49,51.77-5.91,72.04-21.42,9.83-7.53,17.76-17.18,23.56-28.1s9.39-22.39,11.9-34.22c2.67-12.62,4.08-25.54,4.83-38.41.83-14.21.32-28.68-4.04-42.34-3.85-12.09-10.77-23.02-20.9-30.79s-21.79-11.78-33.75-14.37c-13.23-2.86-26.91-4.19-40.44-4.14-14.22.06-28.5,1.77-42.19,5.71-23.33,6.73-45.2,20-60.06,39.45-15.1,19.76-22.1,45.82-16.55,70.33,1.36,6.02,3.41,11.83,6.25,17.31,1.22,2.36,5.82.39,4.6-1.95h0Z"></path>
  <path class="cls-4" d="M501.35,563.37c-31.02,5.62-61.95,11.77-92.76,18.46-30.81,6.69-61.5,13.92-92.06,21.68-17.26,4.38-34.47,8.94-51.64,13.66-1.03.28.41.91.74,1.02,1,.33,2.36.6,3.41.31,30.4-8.36,60.94-16.19,91.62-23.49,30.67-7.3,61.47-14.06,92.38-20.28,17.46-3.52,34.95-6.86,52.47-10.03,1.09-.2-.48-.93-.74-1.02-1.07-.35-2.3-.51-3.41-.31h0Z"></path>
  <path class="cls-4" d="M260.96,610.64c-2.16,2.99-4.33,5.97-6.47,8.97-1.02,1.42-1.98,3.06-1.64,4.89s1.91,3.25,3.76,3.51c1.67.24,3.41-.15,5.07-.34,1.83-.21,3.65-.42,5.48-.63,3.72-.43,7.45-.86,11.17-1.29,3.08-.35,2.09-5.14-.74-4.81-6.06.7-12.12,1.39-18.18,2.09-.67.08-1.33.17-2,.22-.16.01-.34,0-.5.02-.4-.12-.4-.07,0,.15.25.09.38.26.41.52.36.31-.04.34.27-.09.16-.22.29-.47.44-.7.42-.61.86-1.2,1.29-1.79l5.44-7.54c1.67-2.31-2.05-5.62-3.81-3.19h0Z"></path>
  <path class="cls-4" d="M259.12,679.56c22.14-.82,44.28-1.65,66.42-2.47l18.98-.71c1.82-.07-.05-4.62-1.71-4.56-22.14.82-44.28,1.65-66.42,2.47l-18.98.71c-1.82.07.05,4.62,1.71,4.56h0Z"></path>
  <path class="cls-4" d="M344.38,666.82c-1.31,3.72-2.62,7.44-3.93,11.16l4.72,1.37c-.16-1.41-.16-2.84.02-4.25.14-1.18.28-2.86,1.08-3.81.36-.43.73-.42,1.18-.65.23-.12-1.16-.11-1.25-.46.03.12.35.32.45.43.81.91,1.23,2.11,1.66,3.22l.13-.4c-3.07,2.41-6.14,4.83-9.21,7.24-1.53,1.21-3.09,2.39-4.6,3.62-.46.38-1.05.84-1.17,1.46-.14.77.35,1.38.96,1.77.97.64,2.18,1.13,3.35,1.13.85,0,1.19-.52.36-1.06.05.03.14-.47.2-.6.16-.33.46-.54.73-.76.61-.49,1.23-.97,1.84-1.45,1.33-1.05,2.66-2.09,3.99-3.14,2.66-2.09,5.32-4.18,7.98-6.28.16-.1.2-.23.13-.4-.66-1.72-1.42-3.4-2.9-4.57-1.67-1.32-4.24-2.19-6.38-1.92-1.91.24-2.63,1.61-3.01,3.35-.45,2.1-.5,4.24-.26,6.37.11.96,4.35,2.42,4.72,1.37l3.93-11.16c.37-1.06-4.35-2.7-4.74-1.6h0Z"></path>
  <path class="cls-4" d="M147.74,56.04c5.01-16.32,15.03-31.43,28.96-41.46,13.62-9.8,30.73-13.62,47.18-10.02,8.09,1.77,15.88,5.28,22.28,10.59,7.07,5.87,12.24,13.64,15.83,22.05,3.74,8.77,5.89,18.13,7.3,27.53,1.56,10.42,2.16,20.97,1.83,31.5-.65,20.88-4.9,41.71-12.76,61.08-7,17.24-17.13,33.8-31.86,45.49s-33,17.53-50.98,13.89-32.11-16.64-41.88-31.46c-11.07-16.79-17.39-36.87-18.16-56.95-.77-19.87,3.9-39.8,13.3-57.32,2.26-4.22,4.79-8.29,7.58-12.17,1.73-2.41-2.88-2.53-4.01-.96-12.01,16.7-19.51,36.5-21.35,57.01-1.86,20.86,2.23,42.22,11.58,60.95,8.38,16.78,21.22,32.57,38.73,40.3s38.95,5.43,56.17-3.62,30.6-24.96,39.64-42.34c9.72-18.69,15.57-39.55,17.86-60.45,1.18-10.75,1.4-21.62.63-32.41-.74-10.36-2.21-20.76-5.05-30.76-2.64-9.29-6.6-18.35-12.62-25.96-5.54-7-12.85-12.45-21.09-15.86-16.64-6.88-35.98-6.05-52.19,1.61-16.37,7.74-29.24,21.87-36.95,38.1-1.9,3.99-3.46,8.12-4.75,12.34-.35,1.13,1.56,1.33,2.22,1.23,1.14-.16,2.27-.79,2.62-1.93h0Z"></path>
</svg>
