<?xml version="1.0" encoding="UTF-8"?>
<svg id="Livello_1" xmlns="http://www.w3.org/2000/svg" version="1.1" viewBox="0 0 840.6 541.1">
  <!-- Generator: Adobe Illustrator 30.1.0, SVG Export Plug-In . SVG Version: 2.1.1 Build 136)  -->
  <defs>
    <style>
      .st0 {
        fill: #fff;
      }
    </style>
  </defs>
  <g>
    <path class="st0" d="M352.5,108.4v218.7h-37.3v-166.4l-64.9,166.4h-38l-64.6-166.4v166.4h-37.6V108.4h55l66.4,185.2,66.4-185.2h54.6Z"/>
    <path class="st0" d="M374.4,108.4h112.9c76.4,0,79.3,98.5,24,109.6,55.3,10.7,52.4,109.2-24,109.2h-112.9V108.4ZM411.6,293.6h70.5c16.2,0,29.5-13.3,29.5-29.9s-13.3-29.1-29.5-29.1h-70.5v59ZM482.1,201c16.2,0,29.5-13.3,29.5-29.5,0-16.6-13.3-29.5-29.5-29.5h-70.4v59h70.5,0Z"/>
    <path class="st0" d="M645.2,108.8l86.7,218.4h-8.1l-26.6-67.9h-113.2l-26.9,67.9h-7.4l86.3-218.4h9.2,0ZM586.6,253h108.5l-54.2-137.6-54.2,137.6h0Z"/>
  </g>
  <g>
    <path class="st0" d="M117.4,368.5c0,25.8,57.6,7.2,57.6,40.6s-15.4,23.6-33.2,23.6c-15.8-.1-33.1-8.4-33.1-26.4h8.7v2.3c1,10.7,12.9,16.1,24.6,16.1s23.8-5.4,24.2-16.1c.7-25.7-57.6-7.2-57.6-40.5s15.4-23.8,33.1-23.8,33.2,8.7,33.2,26.5h-8.7v-2.5c-1.4-11.3-12.8-16.5-24.2-16.5s-24.7,6.1-24.7,16.5h0Z"/>
    <path class="st0" d="M243.9,345.5v8.1h-28.6v77.9h-8.8v-77.9h-28.7v-8.1h66.1Z"/>
    <path class="st0" d="M318.4,345.6v55.2c0,21.2-17,31.9-34.1,31.9s-34.4-10.7-34.4-31.9v-55.2h8.8v53.8c0,17,12.6,25.5,25.5,25.5s25.2-8.5,25.2-25.5v-53.8h8.9Z"/>
    <path class="st0" d="M361.4,345.5c23.3,0,43.2,19.3,43.2,43,0,23.6-19.9,42.9-43.2,42.9h-29.1v-86h29.1ZM361.4,423.6c19.1,0,35.2-15.8,35.2-35.1s-16.1-34.9-35.2-34.9h-20.3v70h20.3Z"/>
    <path class="st0" d="M415.1,431.4v-86h8.8v86h-8.8Z"/>
    <path class="st0" d="M482.9,344.4c26.8,0,48.6,19.9,48.6,44.1s-21.8,44.2-48.6,44.2-48.4-19.9-48.4-44.2,21.8-44.1,48.4-44.1h0ZM482.9,424.9c21.9,0,39.6-16.4,39.6-36.4s-17.7-36.1-39.6-36.1-39.6,16.1-39.6,36.1,17.7,36.4,39.6,36.4h0Z"/>
  </g>
</svg>