<?xml version="1.0" encoding="utf-8"?>
<!-- Generator: Adobe Illustrator 22.1.0, SVG Export Plug-In . SVG Version: 6.00 Build 0)  -->
<svg version="1.1" id="Layer_1" xmlns="http://www.w3.org/2000/svg" xmlns:xlink="http://www.w3.org/1999/xlink" x="0px" y="0px"
	 viewBox="0 0 256 256" enable-background="new 0 0 256 256" xml:space="preserve">
<g>
	<g>
		<path fill="#A4C9FF" d="M178.373,234.69H6.951c-1.522,0-2.756-1.234-2.756-2.756V7.756C4.195,6.234,5.429,5,6.951,5h171.422
			c1.522,0,2.756,1.234,2.756,2.756v224.177C181.13,233.456,179.896,234.69,178.373,234.69z"/>
	</g>
	<g>
		<path fill="#3762CC" d="M178.374,236.689H6.951c-2.623,0-4.756-2.134-4.756-4.756V7.756C2.195,5.134,4.329,3,6.951,3h171.422
			c2.623,0,4.756,2.134,4.756,4.756v224.177C183.13,234.556,180.996,236.689,178.374,236.689z M6.951,7
			C6.534,7,6.195,7.339,6.195,7.756v224.177c0,0.417,0.339,0.756,0.756,0.756h171.422c0.417,0,0.756-0.339,0.756-0.756V7.756
			c0-0.417-0.339-0.756-0.756-0.756H6.951z"/>
	</g>
	<g>
		<path fill="#E0EBFC" d="M190.684,253H19.261c-1.522,0-2.756-1.234-2.756-2.756V26.067c0-1.522,1.234-2.756,2.756-2.756h171.423
			c1.522,0,2.756,1.234,2.756,2.756v224.177C193.44,251.766,192.206,253,190.684,253z"/>
	</g>
	<g>
		<path fill="#3762CC" d="M190.684,255H19.261c-2.623,0-4.756-2.134-4.756-4.756V26.067c0-2.623,2.134-4.756,4.756-4.756h171.423
			c2.623,0,4.756,2.134,4.756,4.756v224.177C195.44,252.866,193.307,255,190.684,255z M19.261,25.311
			c-0.417,0-0.756,0.339-0.756,0.756v224.177c0,0.417,0.339,0.756,0.756,0.756h171.423c0.417,0,0.756-0.339,0.756-0.756V26.067
			c0-0.417-0.339-0.756-0.756-0.756H19.261z"/>
	</g>
	<g>
		<rect x="186.294" y="194.623" fill="#A4C9FF" width="14.293" height="58.377"/>
	</g>
	<g>
		<path fill="#3762CC" d="M200.587,255h-14.293c-1.104,0-2-0.896-2-2v-58.377c0-1.104,0.896-2,2-2h14.293c1.104,0,2,0.896,2,2V253
			C202.587,254.104,201.691,255,200.587,255z M188.293,251h10.293v-54.377h-10.293V251z"/>
	</g>
	<g>
		<circle fill="#FFEA92" cx="193.44" cy="132.657" r="23.88"/>
	</g>
	<g>
		<g>
			<path fill="#FFEA92" d="M160.333,107.394H52.851v-4.296c0-29.68,24.06-53.74,53.74-53.74h0c29.68,0,53.74,24.06,53.74,53.74
				V107.394z"/>
		</g>
		<g>
			<path fill="#3762CC" d="M160.333,109.394H52.852c-1.104,0-2-0.896-2-2v-4.296c0-30.735,25.005-55.74,55.74-55.74
				s55.741,25.005,55.741,55.74v4.296C162.333,108.498,161.437,109.394,160.333,109.394z M54.852,105.394h103.481v-2.296
				c0-28.53-23.21-51.74-51.74-51.74s-51.741,23.21-51.741,51.74V105.394z"/>
		</g>
		<g>
			<path fill="#FFEA92" d="M86.548,86.301h40.087c1.723,0,3.178-1.281,3.396-2.991l3.61-28.325c0.09-0.705-0.26-1.4-0.888-1.731
				c-7.822-4.123-16.722-6.465-26.161-6.465s-18.34,2.342-26.161,6.465c-0.628,0.331-0.978,1.026-0.888,1.731l0.443,3.474
				l3.168,24.851C83.37,85.02,84.825,86.301,86.548,86.301z"/>
		</g>
		<g>
			<path fill="#3762CC" d="M126.636,88.301H86.548c-2.722,0-5.035-2.037-5.38-4.737l-3.61-28.326
				c-0.194-1.532,0.585-3.04,1.94-3.753c8.309-4.38,17.678-6.695,27.093-6.695c9.416,0,18.785,2.315,27.094,6.696
				c1.355,0.714,2.135,2.222,1.939,3.753l-3.61,28.326C131.671,86.265,129.358,88.301,126.636,88.301z M81.551,54.925l3.585,28.133
				c0.09,0.708,0.698,1.243,1.412,1.243h40.087c0.714,0,1.321-0.534,1.412-1.243l3.586-28.133
				c-7.691-4.015-16.345-6.136-25.042-6.136S89.241,50.911,81.551,54.925z"/>
		</g>
		<g>
			<path fill="#FFEA92" d="M84.897,49.428l8.375,63.346h26.64l8.375-63.346c0.098-0.739-0.32-1.457-1.018-1.718
				c-6.439-2.412-13.406-3.733-20.677-3.733s-14.238,1.321-20.677,3.733C85.217,47.971,84.799,48.689,84.897,49.428z"/>
		</g>
		<g>
			<path fill="#3762CC" d="M119.912,114.774h-26.64c-1.003,0-1.851-0.743-1.983-1.738L82.914,49.69c0,0,0,0,0,0
				c-0.222-1.679,0.724-3.264,2.301-3.853c6.836-2.561,14.029-3.86,21.377-3.86s14.541,1.299,21.378,3.86
				c1.576,0.589,2.521,2.174,2.3,3.853l-8.375,63.346C121.763,114.031,120.916,114.774,119.912,114.774z M95.025,110.774h23.134
				l8.105-61.304c-6.297-2.318-12.914-3.493-19.672-3.493S93.216,47.152,86.92,49.47L95.025,110.774z"/>
		</g>
		<g>
			<path fill="#FFEA92" d="M160.904,119.686H52.28c-3.394,0-6.146-2.752-6.146-6.146v0c0-3.394,2.752-6.146,6.146-6.146h108.625
				c3.394,0,6.146,2.752,6.146,6.146v0C167.05,116.934,164.299,119.686,160.904,119.686z"/>
		</g>
		<g>
			<path fill="#3762CC" d="M160.904,121.686H52.279c-4.491,0-8.146-3.654-8.146-8.146s3.654-8.146,8.146-8.146h108.625
				c4.492,0,8.146,3.654,8.146,8.146S165.396,121.686,160.904,121.686z M52.279,109.394c-2.286,0-4.146,1.86-4.146,4.146
				s1.86,4.146,4.146,4.146h108.625c2.286,0,4.146-1.86,4.146-4.146s-1.86-4.146-4.146-4.146H52.279z"/>
		</g>
	</g>
	<g>
		<path fill="#3762CC" d="M193.44,158.537c-14.27,0-25.879-11.61-25.879-25.88s11.609-25.879,25.879-25.879
			s25.88,11.609,25.88,25.879S207.71,158.537,193.44,158.537z M193.44,110.777c-12.064,0-21.879,9.815-21.879,21.879
			s9.815,21.88,21.879,21.88s21.88-9.815,21.88-21.88S205.504,110.777,193.44,110.777z"/>
	</g>
	<g>
		<path fill="#3762CC" d="M151,144.039H62.464c-1.104,0-2-0.896-2-2s0.896-2,2-2H151c1.104,0,2,0.896,2,2
			S152.104,144.039,151,144.039z"/>
	</g>
	<g>
		<path fill="#3762CC" d="M151,161.414H62.464c-1.104,0-2-0.896-2-2s0.896-2,2-2H151c1.104,0,2,0.896,2,2
			S152.104,161.414,151,161.414z"/>
	</g>
	<g>
		<path fill="#3762CC" d="M113.5,180.236H62.464c-1.104,0-2-0.896-2-2s0.896-2,2-2H113.5c1.104,0,2,0.896,2,2
			S114.604,180.236,113.5,180.236z"/>
	</g>
	<g>
		<path fill="#3762CC" d="M113.5,197.61H62.464c-1.104,0-2-0.896-2-2s0.896-2,2-2H113.5c1.104,0,2,0.896,2,2
			S114.604,197.61,113.5,197.61z"/>
	</g>
	<g>
		<path fill="#F9A7A7" d="M246.767,214.623H140.113c-2.473,0-4.477-2.004-4.477-4.477v-36.875c0-2.473,2.004-4.477,4.477-4.477
			h106.654c2.473,0,4.477,2.004,4.477,4.477v36.875C251.244,212.618,249.24,214.623,246.767,214.623z"/>
	</g>
	<g>
		<g>
			<path fill="#3762CC" d="M195.817,147.729h-4.753c-4.379,0-7.942-3.563-7.942-7.942c0-1.104,0.896-2,2-2s2,0.896,2,2
				c0,2.174,1.769,3.942,3.942,3.942h4.753c2.173,0,3.942-1.769,3.942-3.942v-2.376c0-2.174-1.769-3.942-3.942-3.942h-4.753
				c-4.379,0-7.942-3.563-7.942-7.942s3.563-7.942,7.942-7.942h4.753c4.379,0,7.942,3.563,7.942,7.942c0,1.104-0.896,2-2,2
				s-2-0.896-2-2c0-2.173-1.769-3.942-3.942-3.942h-4.753c-2.174,0-3.942,1.769-3.942,3.942s1.769,3.942,3.942,3.942h4.753
				c4.379,0,7.942,3.563,7.942,7.942v2.376C203.759,144.167,200.196,147.729,195.817,147.729z"/>
		</g>
		<g>
			<path fill="#3762CC" d="M193.44,150.106c-1.104,0-2-0.896-2-2v-30.898c0-1.104,0.896-2,2-2s2,0.896,2,2v30.898
				C195.44,149.21,194.544,150.106,193.44,150.106z"/>
		</g>
	</g>
	<g>
		<path fill="#3762CC" d="M113.5,217.61H62.464c-1.104,0-2-0.896-2-2s0.896-2,2-2H113.5c1.104,0,2,0.896,2,2
			S114.604,217.61,113.5,217.61z"/>
	</g>
	<g>
		<path fill="#3762CC" d="M246.767,216.623H140.113c-3.571,0-6.477-2.906-6.477-6.477v-36.875c0-3.571,2.905-6.477,6.477-6.477
			h106.654c3.571,0,6.477,2.905,6.477,6.477v36.875C253.244,213.717,250.338,216.623,246.767,216.623z M140.113,170.794
			c-1.366,0-2.477,1.111-2.477,2.477v36.875c0,1.366,1.111,2.477,2.477,2.477h106.654c1.366,0,2.477-1.111,2.477-2.477v-36.875
			c0-1.366-1.111-2.477-2.477-2.477H140.113z"/>
	</g>
	<g>
		<g>
			<path fill="#3762CC" d="M219.374,208.304h-10.104c-1.104,0-2-0.896-2-2v-29.191c0-1.104,0.896-2,2-2h10.104
				c4.198,0,7.614,3.416,7.614,7.613v17.964C226.987,204.888,223.572,208.304,219.374,208.304z M211.269,204.304h8.104
				c1.993,0,3.614-1.621,3.614-3.614v-17.964c0-1.992-1.621-3.613-3.614-3.613h-8.104V204.304z"/>
		</g>
		<g>
			<g>
				<path fill="#3762CC" d="M193.325,208.304c-1.104,0-2-0.896-2-2v-29.191c0-1.104,0.896-2,2-2s2,0.896,2,2v29.191
					C195.325,207.408,194.43,208.304,193.325,208.304z"/>
			</g>
			<g>
				<path fill="#3762CC" d="M196.693,179.113h-6.736c-1.104,0-2-0.896-2-2s0.896-2,2-2h6.736c1.104,0,2,0.896,2,2
					S197.798,179.113,196.693,179.113z"/>
			</g>
			<g>
				<path fill="#3762CC" d="M196.693,208.304h-6.736c-1.104,0-2-0.896-2-2s0.896-2,2-2h6.736c1.104,0,2,0.896,2,2
					S197.798,208.304,196.693,208.304z"/>
			</g>
		</g>
		<g>
			<g>
				<path fill="#3762CC" d="M171.998,190.34h-10.104c-1.104,0-2-0.896-2-2v-11.227c0-1.104,0.896-2,2-2h10.104
					c4.198,0,7.614,3.416,7.614,7.613C179.611,186.924,176.196,190.34,171.998,190.34z M163.893,186.34h8.104
					c1.993,0,3.614-1.621,3.614-3.614c0-1.992-1.621-3.613-3.614-3.613h-8.104V186.34z"/>
			</g>
			<g>
				<path fill="#3762CC" d="M171.998,208.304h-10.104c-1.104,0-2-0.896-2-2V188.34c0-1.104,0.896-2,2-2h10.104
					c4.198,0,7.614,3.416,7.614,7.614v6.736C179.611,204.888,176.196,208.304,171.998,208.304z M163.893,204.304h8.104
					c1.993,0,3.614-1.621,3.614-3.614v-6.736c0-1.993-1.621-3.614-3.614-3.614h-8.104V204.304z"/>
			</g>
		</g>
	</g>
</g>
</svg>
