<svg xmlns="http://www.w3.org/2000/svg" id="Livello_1" data-name="Livello 1" viewBox="0 0 840.6 541.12"><defs><style>      .cls-1 {        fill: #042444;      }    </style></defs><g><path class="cls-1" d="M352.45,108.4v218.74h-37.26v-166.36l-64.92,166.36h-38l-64.55-166.36v166.36h-37.63V108.4h54.97l66.39,185.18,66.41-185.18h54.59Z"></path><path class="cls-1" d="M374.36,108.39h112.88c76.36,0,79.32,98.5,23.98,109.56,55.32,10.7,52.38,109.2-23.98,109.2h-112.88V108.39ZM411.61,293.57h70.46c16.24,0,29.51-13.27,29.51-29.88s-13.29-29.14-29.51-29.14h-70.46v59.02ZM482.08,201c16.23,0,29.5-13.29,29.51-29.51,0-16.6-13.29-29.51-29.51-29.51h-70.45v59.03h70.45Z"></path><path class="cls-1" d="M645.24,108.77l86.68,218.38h-8.12l-26.56-67.88h-113.24l-26.92,67.88h-7.38l86.32-218.38h9.23ZM586.59,253h108.45l-54.23-137.59-54.23,137.59Z"></path></g><g><path class="cls-1" d="M117.37,368.5c0,25.81,57.56,7.25,57.56,40.6,0,13.62-15.36,23.63-33.2,23.63-15.8-.14-33.05-8.41-33.05-26.39h8.7v2.32c1.02,10.73,12.9,16.09,24.65,16.09s23.78-5.36,24.21-16.09c.72-25.66-57.56-7.25-57.56-40.45,0-13.77,15.37-23.78,33.05-23.78,16.09,0,33.2,8.69,33.2,26.53h-8.7v-2.47c-1.45-11.31-12.76-16.52-24.21-16.52-12.33,0-24.65,6.09-24.65,16.52Z"></path><path class="cls-1" d="M243.95,345.47v8.12h-28.56v77.85h-8.84v-77.85h-28.71v-8.12h66.11Z"></path><path class="cls-1" d="M318.37,345.59v55.24c0,21.16-16.96,31.89-34.07,31.89s-34.36-10.73-34.36-31.89v-55.24h8.84v53.79c0,16.96,12.61,25.52,25.52,25.52s25.22-8.55,25.22-25.52v-53.79h8.84Z"></path><path class="cls-1" d="M361.37,345.47c23.34,0,43.21,19.28,43.2,43.05,0,23.63-19.86,42.92-43.2,42.92h-29.14v-85.97h29.14ZM361.37,423.61c19.14,0,35.23-15.8,35.23-35.09,0-19.28-16.09-34.94-35.23-34.94h-20.3v70.02h20.3Z"></path><path class="cls-1" d="M415.12,431.44v-85.97h8.84v85.97h-8.84Z"></path><path class="cls-1" d="M482.92,344.43c26.82,0,48.57,19.86,48.57,44.07s-21.75,44.22-48.57,44.22-48.42-19.87-48.42-44.22,21.75-44.07,48.42-44.07ZM482.92,424.89c21.89,0,39.58-16.38,39.58-36.39s-17.69-36.1-39.58-36.1-39.58,16.09-39.58,36.1,17.69,36.39,39.58,36.39Z"></path></g></svg>